<?xml version="1.0" encoding="UTF-8"?>
<!DOCTYPE svg PUBLIC "-//W3C//DTD SVG 1.1//EN" "http://www.w3.org/Graphics/SVG/1.1/DTD/svg11.dtd">
<!-- Creator: CorelDRAW X5 -->
<svg xmlns="http://www.w3.org/2000/svg" xml:space="preserve" width="1.1811in" height="0.473457in" style="shape-rendering:geometricPrecision; text-rendering:geometricPrecision; image-rendering:optimizeQuality; fill-rule:evenodd; clip-rule:evenodd"
viewBox="0 0 0.467621 0.187451"
 xmlns:xlink="http://www.w3.org/1999/xlink">
 <defs>
  <style type="text/css">
   <![CDATA[
    .fil0 {fill:#282829}
   ]]>
  </style>
 </defs>
 <g id="Layer_x0020_1">
  <metadata id="CorelCorpID_0Corel-Layer"/>
  <g id="_180720392">
   <path id="_180721256" class="fil0" d="M0.373751 0.0711049c0,0 0.0036833,-0.00390308 0.000865099,-0.00802282 -0.00455151,-0.00671972 -0.0175592,-0.0086697 -0.0264455,-0.00606817 -0.00411974,0.00108332 -0.00520307,0.00260153 -0.00802126,0.000216665 -0.00281664,-0.0021682 -0.00325153,-0.0028182 -0.00325153,-0.0028182 0,0 0.00671816,-0.000433329 0.00910459,0 0.00238331,0.000649994 0.00455151,0.00151821 0.00455151,0.00151821 0,0 0.00238331,-0.00130155 0.00151821,-0.00325309 -0.00108332,-0.0021682 -0.000866658,-0.00498484 -0.00953948,-0.00476818 -0.00606817,0.000216665 -0.0190758,0.000648435 -0.0270971,0.00108332l0 0.0099728c0.0104046,0.00715305 0.0223289,0.0151743 0.0223289,0.0151743 0.00780304,-0.00303486 0.0329486,-0.0138743 0.0359866,-0.00303486zm-0.0583155 0.0201592l0 -0.00108332 0.000651552 0.000433329c0,0 -0.00043177,0.000216665 -0.000651552,0.000649994zm0 -0.00802126l0 -0.017341 0.0175592 0.0123546c0.000434888,0.00281976 -0.00823793,0.00845615 -0.0175592,0.0049864zm0 -0.0342501l0 0c-0.00411974,0.000218223 -0.00693482,0.000218223 -0.00693482,0.000218223 0,0 -0.00542129,-0.000653111 -0.00715305,-0.00303642 -0.0019531,-0.0021682 -0.00260309,-0.00303486 -0.00260309,-0.00303486 0,0 -0.00325153,0.00195154 0.00151821,0.0056364 0.00195154,0.00129999 0.00823793,0.0056364 0.0151728,0.0101895l0 -0.0099728zm0 0.0169092l0 0.017341c-0.00129999,-0.000433329 -0.00238331,-0.00108332 -0.00346663,-0.00173332 0,0 -0.0828079,-0.0576624 -0.0979838,-0.065467 -0.0149561,-0.0078046 -0.0418365,-0.0110546 -0.0418365,-0.0110546 0,0 -0.0750049,-0.000434888 -0.0791246,-0.00130155 -0.00411819,-0.000866658 -0.00281664,-0.00368641 -0.00281664,-0.00368641 0,0 0.0802064,0.00108488 0.110557,0.00325309 0.0305637,0.00238487 0.0511578,0.0177758 0.0511578,0.0177758l0.0635139 0.0448729zm0 0.0242789l0 0.00108332c-0.00151665,0.00108488 -0.00455151,0.00346819 -0.00758638,0.00476974 -0.00411974,0.00194998 -0.0136561,-0.00260153 -0.0136561,-0.00260153 0,0 -0.0682836,-0.0459578 -0.0793382,-0.0537609 -0.0108395,-0.0078046 -0.0349033,-0.0119228 -0.0349033,-0.0119228 0,0 -0.0691503,-0.00216665 -0.07327,-0.00216665 -0.00411663,0 -0.00325153,-0.00325309 -0.00325153,-0.00325309 0,0 0.0650321,0.00195154 0.0934307,0.0028182 0.0281804,0.000866658 0.0468245,0.0149592 0.0468245,0.0149592l0.0717503 0.0500745zm-0.0485578 0.0375017l-0.0368486 -0.0251456c0,0 -0.00953948,-0.00650305 -0.0260138,-0.0104061l0 0.00910615c0.000866658,0.00043177 0.00151821,0.000866658 0.00238175,0.00129999 0.0145259,0.00867126 0.0355548,0.0234122 0.0424896,0.0288304 0.00693638,0.00455307 0.0125712,0.00195154 0.017991,-0.00368486zm-0.0628623 -0.0487745l0 -0.00910459c0.0175576,0.0028182 0.0286137,0.0101895 0.0286137,0.0101895l0.0509395 0.0351168c0,0 -0.00173332,0.00325153 -0.00671816,0.0056364 -0.00498484,0.0021682 -0.0136577,-0.00195154 -0.0136577,-0.00195154 0,0 -0.024494,-0.0162576 -0.0418365,-0.0299153 -0.00541817,-0.00433485 -0.0114879,-0.00758794 -0.017341,-0.00997125zm0 -0.0221107l0 -0.00823949c0.0214591,0.00368641 0.0327319,0.0110577 0.0327319,0.0110577l0.0628639 0.0429214c0,0 -0.0028182,0.00303486 -0.00736971,0.00585306 -0.00455151,0.0028182 -0.0121394,-0.00130155 -0.0121394,-0.00130155 0,0 -0.0505078,-0.0346835 -0.0711018,-0.0474729 -0.00173488,-0.00108488 -0.00325153,-0.00195154 -0.00498484,-0.0028182zm0 0.0353335l0 0c-0.00390308,-0.000866658 -0.00802282,-0.00151665 -0.012791,-0.00194998 -0.0240622,-0.0021682 -0.0500745,-0.0021682 -0.0500745,-0.0021682 0,0 -0.000434888,0.00303486 0.00411663,0.00303486 0.00455463,0 0.0333866,0.000866658 0.0333866,0.000866658 0,0 0.0117046,0.00173488 0.0253622,0.00932281l0 -0.00910615zm0 -0.043573l0 0.00823949c-0.0175592,-0.00953792 -0.0290486,-0.00802126 -0.0290486,-0.00802126 0,0 -0.0437865,-0.00173488 -0.0520275,-0.000866658 -0.00801971,0.000866658 -0.00671816,-0.00325153 -0.00671816,-0.00325153 0,0 0.0455229,0 0.0750033,0.00238331 0.00455151,0.000218223 0.00888792,0.000868217 0.012791,0.00151665zm0 0.0212456l0 0.00910459c-0.0130077,-0.00541817 -0.0249305,-0.00693638 -0.0249305,-0.00693638 0,0 -0.039235,-0.0028182 -0.0450896,-0.0021682 -0.0058515,0.000433329 -0.00541817,-0.00368486 -0.00541817,-0.00368486 0,0 0.0444381,0.00129999 0.0667654,0.00259997 0.00303642,0.000218223 0.00607128,0.000651552 0.00867282,0.00108488z"/>
   <path id="_180720488" class="fil0" d="M0.0260091 0.162314c0,8.72893e-005 -7.79369e-006,0.000174579 -2.18223e-005,0.000268103 -1.55874e-005,8.72893e-005 -2.18223e-005,0.000190166 -2.18223e-005,0.000297719 -2.18223e-005,0.00011067 -3.5851e-005,0.000226017 -4.36447e-005,0.000356951 -7.79369e-006,0.00012314 -2.18223e-005,0.000255633 -4.36447e-005,0.000386567 -4.36447e-005,0.000129375 -8.10544e-005,0.000260309 -0.000109112,0.000392802 -2.9616e-005,0.000130934 -6.5467e-005,0.000260309 -0.000109112,0.000391243 -2.18223e-005,0.000130934 -5.14383e-005,0.000263427 -9.5083e-005,0.000378773 -3.5851e-005,0.00012314 -7.94956e-005,0.000233811 -0.00012314,0.000319541 -6.5467e-005,0.000109112 -0.000124699,0.000204195 -0.000174579,0.000291484 -5.14383e-005,8.72893e-005 -0.000109112,0.000166785 -0.000174579,0.000232252 -6.5467e-005,6.70257e-005 -0.000130934,0.000116905 -0.000196401,0.00016055 -6.5467e-005,3.5851e-005 -0.000130934,5.9232e-005 -0.000196401,5.9232e-005 -8.72893e-005,0 -0.000204195,-2.9616e-005 -0.000356951,-9.5083e-005 -0.000144963,-5.76733e-005 -0.000319541,-0.000146521 -0.000515942,-0.000254074 -0.000196401,-0.000132493 -0.000414624,-0.000263427 -0.000662464,-0.000400596 -0.000240046,-0.000130934 -0.000515942,-0.000275897 -0.000821455,-0.000428653 -0.000305513,-0.000152756 -0.000646876,-0.000299278 -0.00101786,-0.000430212 -0.000378773,-0.000130934 -0.000793398,-0.000246281 -0.00125167,-0.000356951 -0.000436447,-0.000130934 -0.000916538,-0.000232252 -0.00143248,-0.000297719 -0.000523736,-6.5467e-005 -0.00107709,-9.35243e-005 -0.00166473,-9.35243e-005 -0.000612584,0 -0.00119399,4.20859e-005 -0.00173955,0.000130934 -0.000551793,8.57306e-005 -0.00107553,0.000218223 -0.00157744,0.000392802 -0.000523736,0.00017302 -0.00101941,0.000377215 -0.00147612,0.00061726 -0.000466063,0.000240046 -0.000902509,0.000515942 -0.00131713,0.000821455 -0.000414624,0.000305513 -0.000807426,0.000632848 -0.00117061,0.000989798 -0.00037098,0.000349157 -0.000706108,0.000734165 -0.00101162,0.00114879 -0.000327335,0.000414624 -0.000625054,0.000837042 -0.000886922,0.00127349 -0.000268103,0.000436447 -0.000509707,0.000886922 -0.000726372,0.00134519 -0.000218223,0.000480091 -0.000408389,0.000960182 -0.000561146,0.00144651 -0.000158991,0.000480091 -0.000289925,0.00097577 -0.000400596,0.00147612 -0.000107553,0.000501914 -0.000188607,0.00100383 -0.000232252,0.00149951 -4.98796e-005,0.000501914 -7.17019e-005,0.000989798 -7.17019e-005,0.00146989 0,0.000545558 3.5851e-005,0.00105371 0.000107553,0.0015338 7.32607e-005,0.000480091 0.000196401,0.000930566 0.00037098,0.00134519 0.000152756,0.000414624 0.000342922,0.000793398 0.000561146,0.00114255 0.000226017,0.000349157 0.000486326,0.000668698 0.000791839,0.000952389 0.00028369,0.000261868 0.00060479,0.000501914 0.000953948,0.000706108 0.000355392,0.00021043 0.000748194,0.000385008 0.00118464,0.000515942 0.000414624,0.000152756 0.000851071,0.000261868 0.00131713,0.00033357 0.000458269,6.70257e-005 0.000952389,0.000102877 0.00147612,0.000102877 0.000349157,0 0.000698315,-1.40286e-005 0.00103968,-4.36447e-005 0.000349157,-2.9616e-005 0.000684286,-8.72893e-005 0.00101162,-0.000174579 0.000349157,-6.5467e-005 0.000684286,-0.000152756 0.00101162,-0.000255633 0.000319541,-0.000107553 0.000625054,-0.000224458 0.000907185,-0.000355392l0.00126725 -0.00637212 -0.00519371 0c-8.72893e-005,0 -0.000158991,-2.18223e-005 -0.000226017,-5.76733e-005 -6.5467e-005,-4.36447e-005 -0.00012314,-9.5083e-005 -0.000166785,-0.00016055 -4.36447e-005,-6.39082e-005 -8.72893e-005,-0.000152756 -0.000115347,-0.000261868 -3.74097e-005,-0.000107553 -5.9232e-005,-0.000240046 -5.9232e-005,-0.000392802 0,-6.39082e-005 7.79369e-006,-0.000144963 2.18223e-005,-0.000232252 1.40286e-005,-9.5083e-005 2.18223e-005,-0.000202636 2.18223e-005,-0.00033357 2.18223e-005,-0.00011067 4.36447e-005,-0.000218223 6.5467e-005,-0.000335129 2.18223e-005,-0.000109112 4.36447e-005,-0.000232252 6.5467e-005,-0.000363186 2.18223e-005,-0.000130934 5.14383e-005,-0.000255633 8.72893e-005,-0.00037098 3.5851e-005,-0.000116905 6.5467e-005,-0.000241604 8.72893e-005,-0.00037098 4.36447e-005,-0.000130934 8.72893e-005,-0.000254074 0.000130934,-0.000364745 4.36447e-005,-0.000115347 8.72893e-005,-0.000224458 0.000130934,-0.00033357 6.5467e-005,-8.72893e-005 0.00012314,-0.000174579 0.000174579,-0.000254074 5.14383e-005,-8.88481e-005 0.000109112,-0.00016055 0.000174579,-0.000226017 6.5467e-005,-6.5467e-005 0.000137169,-0.000109112 0.000218223,-0.000138728 7.94956e-005,-2.18223e-005 0.000152756,-3.5851e-005 0.000218223,-3.5851e-005l0.00929475 0c0.000240046,0 0.00044424,3.5851e-005 0.000618819,0.000101318 0.000166785,7.32607e-005 0.000297719,0.000182372 0.000385008,0.000335129 0.000109112,0.000152756 0.000174579,0.000349157 0.000196401,0.000573615 2.18223e-005,0.000233811 0,0.000495679 -6.5467e-005,0.000779369l-0.00218223 0.0109953c-4.36447e-005,0.000154315 -7.94956e-005,0.000285249 -0.000109112,0.000400596 -2.80573e-005,0.000109112 -6.5467e-005,0.000211988 -0.000109112,0.000297719 -4.36447e-005,0.00011067 -9.35243e-005,0.000204195 -0.000158991,0.000291484 -5.9232e-005,8.72893e-005 -0.000124699,0.000168344 -0.000190166,0.000232252 -8.72893e-005,8.88481e-005 -0.000218223,0.000182372 -0.000400596,0.000291484 -0.00017302,0.000102877 -0.000406831,0.00021043 -0.000688962,0.0003211 -0.000285249,0.000130934 -0.000596997,0.000254074 -0.000946154,0.000363186 -0.000349157,0.000116905 -0.000734165,0.000224458 -0.00115035,0.00033357 -0.000392802,0.00011067 -0.000813661,0.000218223 -0.00127193,0.000313306 -0.000450475,0.000101318 -0.000930566,0.000188607 -0.00143248,0.000254074 -0.000501914,8.88481e-005 -0.00101162,0.000152756 -0.00153536,0.000196401 -0.000515942,4.52034e-005 -0.00103968,6.70257e-005 -0.00156341,6.70257e-005 -0.000982005,0 -0.00190478,-5.9232e-005 -0.00277767,-0.000168344 -0.000872893,-0.000116905 -0.00169591,-0.000291484 -0.00245813,-0.000529971 -0.000741959,-0.000219782 -0.00142625,-0.000501914 -0.00205909,-0.000844836 -0.000625054,-0.000349157 -0.00119243,-0.000748194 -0.00169435,-0.00120646 -0.000523736,-0.000438005 -0.000974211,-0.00093836 -0.00135298,-0.00149795 -0.000378773,-0.000553352 -0.000698315,-0.00116438 -0.000960182,-0.00181905 -0.000261868,-0.000632848 -0.000466063,-0.00133116 -0.000611025,-0.00208715 -0.000144963,-0.000749753 -0.000218223,-0.00155718 -0.000218223,-0.00240825 0,-0.000762223 4.36447e-005,-0.00152756 0.000130934,-0.00228355 8.72893e-005,-0.000763782 0.000218223,-0.00151198 0.000392802,-0.00225393 0.000174579,-0.000720137 0.000385008,-0.00144027 0.000626613,-0.00214638 0.000246281,-0.000704549 0.000529971,-0.00138884 0.000857306,-0.00204351 0.000327335,-0.00065467 0.000698315,-0.00129375 0.00110515,-0.00191257 0.000414624,-0.000618819 0.000858865,-0.00120802 0.00133896,-0.00175202 0.000501914,-0.000568939 0.00102565,-0.00109891 0.00158524,-0.00160082 0.000559587,-0.00049412 0.00116438,-0.000952389 0.00181749,-0.00136701 0.000632848,-0.000392802 0.00130934,-0.000749753 0.00202324,-0.00107709 0.000720137,-0.000319541 0.00146833,-0.000603232 0.00225393,-0.000843277 0.000785604,-0.000218223 0.00161485,-0.000392802 0.00247995,-0.000515942 0.000872893,-0.000116905 0.0017754,-0.000182372 0.00271376,-0.000182372 0.000523736,0 0.00102565,2.18223e-005 0.00151198,6.5467e-005 0.000480091,4.36447e-005 0.000952389,0.000109112 0.00141066,0.000196401 0.000480091,8.72893e-005 0.000916538,0.000174579 0.00132337,0.000269662 0.000408389,0.000101318 0.000793398,0.00021043 0.00116438,0.000341364 0.00037098,0.000109112 0.000712343,0.000224458 0.00101786,0.000356951 0.000305513,0.00012314 0.000575174,0.000254074 0.00081522,0.000385008 0.000261868,0.000130934 0.000472298,0.000247839 0.000632848,0.000355392 0.00016055,0.000102877 0.00028369,0.000190166 0.00037098,0.000255633 8.72893e-005,8.72893e-005 0.000152756,0.000174579 0.00021043,0.000261868 5.14383e-005,8.72893e-005 9.5083e-005,0.000174579 0.000138728,0.000261868 2.18223e-005,8.72893e-005 4.36447e-005,0.000180814 5.76733e-005,0.000289925 2.18223e-005,0.000109112 2.9616e-005,0.000232252 2.9616e-005,0.000364745zm0.0238269 0.0225612c4.20859e-005,0.000260309 6.39082e-005,0.00049412 7.94956e-005,0.000690521 7.79369e-006,0.000202636 7.79369e-006,0.000377215 7.79369e-006,0.00053153 0,0.000152756 -2.33811e-005,0.00028369 -7.32607e-005,0.000391243 -4.36447e-005,0.00011067 -0.000124699,0.000196401 -0.000232252,0.000263427 -8.88481e-005,8.57306e-005 -0.000204195,0.000152756 -0.000356951,0.000202636 -0.000152756,4.36447e-005 -0.000341364,7.94956e-005 -0.000559587,0.000102877 -0.000240046,2.18223e-005 -0.000501914,3.5851e-005 -0.000801191,3.5851e-005 -0.000297719,7.79369e-006 -0.000639082,7.79369e-006 -0.00103188,7.79369e-006 -0.000261868,0 -0.000501914,0 -0.000720137,-7.79369e-006 -0.000218223,0 -0.000414624,-1.40286e-005 -0.000589203,-3.5851e-005 -0.000349157,0 -0.000611025,-4.52034e-005 -0.000785604,-0.000130934 -0.000109112,-2.18223e-005 -0.000188607,-5.14383e-005 -0.000247839,-9.5083e-005 -5.76733e-005,-3.74097e-005 -0.000101318,-7.94956e-005 -0.000144963,-0.000124699 -4.36447e-005,-6.5467e-005 -7.32607e-005,-0.000137169 -9.35243e-005,-0.000224458 -2.18223e-005,-7.94956e-005 -3.74097e-005,-0.000168344 -3.74097e-005,-0.000254074l-0.000741959 -0.00554287 -0.0103422 0 -0.00287899 0.00541194c-4.52034e-005,8.57306e-005 -9.5083e-005,0.00017302 -0.00016055,0.000254074 -5.9232e-005,8.72893e-005 -0.000124699,0.000158991 -0.000188607,0.000226017 -6.70257e-005,6.39082e-005 -0.000138728,0.000129375 -0.000226017,0.000180814 -8.72893e-005,5.76733e-005 -0.000190166,0.000101318 -0.000297719,0.00012314 -0.000130934,4.52034e-005 -0.000277455,8.10544e-005 -0.000438005,0.000102877 -0.000158991,2.80573e-005 -0.000347599,4.98796e-005 -0.000565822,7.32607e-005 -0.000196401,2.18223e-005 -0.000422418,3.5851e-005 -0.000684286,3.5851e-005 -0.000255633,7.79369e-006 -0.000537765,7.79369e-006 -0.000843277,7.79369e-006 -0.000305513,0 -0.000589203,0 -0.000843277,-7.79369e-006 -0.000263427,0 -0.000487885,-1.40286e-005 -0.000684286,-3.5851e-005 -0.000174579,-2.33811e-005 -0.000319541,-6.70257e-005 -0.000428653,-0.000124699 -0.000116905,-6.5467e-005 -0.000204195,-0.000138728 -0.000269662,-0.000226017 -6.5467e-005,-6.5467e-005 -0.000101318,-0.000158991 -0.000101318,-0.000282132 -7.79369e-006,-0.000124699 1.40286e-005,-0.000263427 5.76733e-005,-0.000416183 4.36447e-005,-0.000129375 0.000109112,-0.000303954 0.000196401,-0.000508149 8.72893e-005,-0.000204195 0.000196401,-0.000428653 0.000327335,-0.000668698l0.0133974 -0.0244379c6.39082e-005,-0.000130934 0.000137169,-0.000240046 0.000216665,-0.000341364 8.10544e-005,-9.5083e-005 0.000154315,-0.000182372 0.000219782,-0.000269662 6.5467e-005,-6.5467e-005 0.000151198,-0.000130934 0.000254074,-0.000188607 0.000109112,-6.70257e-005 0.000224458,-0.000116905 0.000356951,-0.00016055 0.000130934,-2.18223e-005 0.00028369,-5.14383e-005 0.000458269,-8.10544e-005 0.000174579,-2.80573e-005 0.00037098,-4.98796e-005 0.000587644,-4.98796e-005 0.000218223,-2.18223e-005 0.000480091,-3.5851e-005 0.000779369,-3.5851e-005 0.000289925,-7.79369e-006 0.00061726,-7.79369e-006 0.000966417,-7.79369e-006 0.000436447,0 0.000823014,0 0.00114879,7.79369e-006 0.000335129,0 0.000618819,1.40286e-005 0.000858865,3.5851e-005 0.000240046,0 0.000458269,2.18223e-005 0.000646876,4.98796e-005 0.000196401,2.9616e-005 0.000356951,5.9232e-005 0.000487885,8.10544e-005 0.000130934,4.36447e-005 0.000247839,9.35243e-005 0.000341364,0.00016055 9.5083e-005,5.76733e-005 0.00016055,0.00012314 0.000182372,0.000188607 4.36447e-005,8.72893e-005 8.72893e-005,0.000182372 0.00012314,0.000291484 2.9616e-005,0.000107553 5.14383e-005,0.000232252 5.14383e-005,0.000363186l0.00362251 0.0244379zm-0.00837977 -0.0202044l0 0 -0.00619598 0.0116937 0.00776719 0 -0.00157121 -0.0116937zm0.0349983 0.0007404c0,0.000459828 -2.80573e-005,0.000910303 -9.5083e-005,0.00135298 -5.76733e-005,0.00044424 -0.000144963,0.000894715 -0.000254074,0.00135298 -0.000130934,0.000436447 -0.000291484,0.000872893 -0.000486326,0.00129531 -0.000196401,0.000428653 -0.000430212,0.000843277 -0.00069208,0.00123608 -0.00028369,0.000392802 -0.000595438,0.000771575 -0.000946154,0.00113476 -0.000349157,0.000363186 -0.000732607,0.000698315 -0.00114879,0.00100227 -0.000434888,0.000328894 -0.000914979,0.000618819 -0.00143871,0.000880687 -0.000523736,0.000255633 -0.00109112,0.000472298 -0.00170214,0.000646876 0.000327335,0.000154315 0.000632848,0.000364745 0.000914979,0.000626613 0.000285249,0.000268103 0.000547117,0.000595438 0.000787163,0.00098824 0.000216665,0.000414624 0.000420859,0.000896274 0.00061726,0.00144807 0.000190166,0.000545558 0.000364745,0.00117061 0.000515942,0.00186893l0.00113476 0.00558652c2.18223e-005,0.000152756 4.36447e-005,0.000303954 6.5467e-005,0.000442682 2.18223e-005,0.000146521 4.52034e-005,0.000277455 6.5467e-005,0.000385008 2.18223e-005,0.000130934 3.74097e-005,0.000247839 3.74097e-005,0.000356951 6.23495e-006,0.000109112 6.23495e-006,0.000211988 6.23495e-006,0.000297719 0,6.70257e-005 -6.23495e-006,0.000130934 -2.9616e-005,0.000190166 -2.18223e-005,6.5467e-005 -5.76733e-005,0.000115347 -0.000101318,0.000158991 -4.36447e-005,4.36447e-005 -0.000107553,8.88481e-005 -0.000188607,0.000130934 -8.72893e-005,4.36447e-005 -0.000182372,8.72893e-005 -0.000291484,0.000132493 -0.000129375,2.02636e-005 -0.00028369,4.20859e-005 -0.000450475,6.39082e-005 -0.000174579,2.18223e-005 -0.000355392,4.36447e-005 -0.000551793,6.70257e-005 -0.000219782,2.18223e-005 -0.000459828,3.5851e-005 -0.000727931,3.5851e-005 -0.000261868,7.79369e-006 -0.000561146,7.79369e-006 -0.000888481,7.79369e-006 -0.000282132,0 -0.000543999,0 -0.00077781,-7.79369e-006 -0.000240046,0 -0.000442682,-1.40286e-005 -0.00061726,-3.5851e-005 -0.000196401,-2.33811e-005 -0.000363186,-4.52034e-005 -0.000501914,-7.32607e-005 -0.000138728,-2.18223e-005 -0.000261868,-5.76733e-005 -0.00037098,-0.000102877 -8.72893e-005,-4.36447e-005 -0.00016055,-8.72893e-005 -0.000226017,-0.000137169 -6.5467e-005,-4.36447e-005 -0.00012314,-0.000102877 -0.000166785,-0.000166785 -2.18223e-005,-6.70257e-005 -4.36447e-005,-0.000138728 -6.5467e-005,-0.000226017 -2.18223e-005,-8.10544e-005 -4.36447e-005,-0.000168344 -6.5467e-005,-0.000254074l-0.00104747 -0.00611025c-6.5467e-005,-0.000349157 -0.000130934,-0.000676492 -0.000204195,-0.00098824 -7.94956e-005,-0.000307071 -0.000166785,-0.00060479 -0.000275897,-0.000888481 -8.72893e-005,-0.000261868 -0.000196401,-0.000501914 -0.000319541,-0.000726372 -0.000130934,-0.000218223 -0.000269662,-0.000430212 -0.000422418,-0.000626613 -0.000152756,-0.000174579 -0.000319541,-0.000327335 -0.00049412,-0.00045671 -0.000182372,-0.000132493 -0.000378773,-0.000241604 -0.000596997,-0.000327335 -0.000218223,-8.88481e-005 -0.000458269,-0.000154315 -0.000712343,-0.000196401 -0.000261868,-4.52034e-005 -0.00053153,-6.70257e-005 -0.00081522,-6.70257e-005l-0.00174579 0 -0.00213703 0.0105184c0,6.39082e-005 -2.18223e-005,0.000129375 -5.9232e-005,0.000196401 -4.20859e-005,6.39082e-005 -9.35243e-005,0.000130934 -0.000158991,0.000194842 -4.36447e-005,4.36447e-005 -0.000109112,8.72893e-005 -0.000190166,0.000132493 -8.72893e-005,4.20859e-005 -0.000180814,8.57306e-005 -0.000289925,0.000129375 -0.000130934,4.52034e-005 -0.000269662,8.10544e-005 -0.000422418,0.000102877 -0.000152756,2.80573e-005 -0.000319541,4.98796e-005 -0.00049412,7.32607e-005 -0.000196401,2.18223e-005 -0.000406831,3.5851e-005 -0.000626613,3.5851e-005 -0.000224458,7.79369e-006 -0.000464504,7.79369e-006 -0.000726372,7.79369e-006 -0.00028369,0 -0.000537765,0 -0.000755988,-7.79369e-006 -0.000226017,0 -0.000422418,-1.40286e-005 -0.000596997,-3.5851e-005 -0.000174579,-2.33811e-005 -0.000327335,-4.52034e-005 -0.000466063,-7.32607e-005 -0.000130934,-2.18223e-005 -0.000254074,-5.76733e-005 -0.000363186,-0.000102877 -0.000174579,-8.72893e-005 -0.000305513,-0.000174579 -0.000392802,-0.000261868 -4.36447e-005,-6.39082e-005 -6.5467e-005,-0.000130934 -7.32607e-005,-0.000194842 0,-6.70257e-005 7.79369e-006,-0.000132493 2.9616e-005,-0.000196401l0.00501914 -0.0250489c6.5467e-005,-0.000327335 0.000166785,-0.000603232 0.000297719,-0.000823014 0.000130934,-0.000224458 0.000291484,-0.000399037 0.000487885,-0.000529971 0.000174579,-0.000152756 0.000377215,-0.000261868 0.000611025,-0.000335129 0.000232252,-6.5467e-005 0.000478532,-0.000101318 0.000741959,-0.000101318l0.00737439 0c0.00065467,0 0.0012657,2.9616e-005 0.0018471,9.35243e-005 0.000575174,5.9232e-005 0.00111917,0.000146521 0.00164291,0.000255633 0.000523736,0.000130934 0.00101162,0.00028369 0.00146989,0.000464504 0.000450475,0.000190166 0.000865099,0.000408389 0.00123608,0.000670257 0.000349157,0.000240046 0.000670257,0.000515942 0.000952389,0.000821455 0.000285249,0.000311748 0.00053153,0.000660905 0.000749753,0.00105527 0.000196401,0.00037098 0.000341364,0.00077781 0.000428653,0.00121426 9.5083e-005,0.000442682 0.000138728,0.000922773 0.000138728,0.00144651zm-0.00597776 0.00104747c0,-0.000196401 -2.18223e-005,-0.000392802 -5.9232e-005,-0.000581409 -4.36447e-005,-0.000196401 -9.35243e-005,-0.000377215 -0.00016055,-0.000551793 -6.39082e-005,-0.000176137 -0.000151198,-0.000327335 -0.000260309,-0.000473856 -0.000109112,-0.000138728 -0.000240046,-0.000269662 -0.000392802,-0.000400596 -0.000152756,-0.000129375 -0.000327335,-0.000240046 -0.000523736,-0.00033357 -0.000196401,-8.72893e-005 -0.000414624,-0.000166785 -0.00065467,-0.000233811 -0.000218223,-6.39082e-005 -0.000480091,-0.000115347 -0.000771575,-0.000158991 -0.000289925,-3.74097e-005 -0.000603232,-5.76733e-005 -0.000930566,-5.76733e-005l-0.00318606 0 -0.00152756 0.00781083 0.00266232 0c0.000523736,0 0.00101162,-3.74097e-005 0.00146989,-0.000101318 0.000450475,-7.32607e-005 0.000865099,-0.000182372 0.00123608,-0.000335129 0.00037098,-0.000152756 0.000698315,-0.000327335 0.000996033,-0.000523736 0.000291484,-0.000196401 0.000553352,-0.000414624 0.000793398,-0.00065467 0.000218223,-0.000240046 0.000414624,-0.000501914 0.000581409,-0.000779369 0.000174579,-0.000268103 0.000313306,-0.000551793 0.000422418,-0.000835483 8.57306e-005,-0.000305513 0.000158991,-0.000603232 0.000218223,-0.000894715 5.76733e-005,-0.000291484 8.72893e-005,-0.000589203 8.72893e-005,-0.000894715zm0.0319417 0.0103438c-0.000194842,0.000871334 -0.000428653,0.00170058 -0.000704549,0.00247216 -0.000277455,0.00077781 -0.000603232,0.00149795 -0.000996033,0.00215262 -0.00037098,0.000676492 -0.000785604,0.00128752 -0.00125167,0.00183931 -0.000458269,0.000561146 -0.000974211,0.00106306 -0.00154159,0.00151977 -0.000567381,0.000438005 -0.00117061,0.000829248 -0.00181125,0.00116438 -0.000639082,0.000341364 -0.00133116,0.000626613 -0.00207312,0.000843277 -0.000718578,0.000218223 -0.00148392,0.000378773 -0.00228355,0.000487885 -0.000807426,0.000109112 -0.00164291,0.000168344 -0.0025158,0.000168344 -0.00093836,0 -0.00181125,-5.9232e-005 -0.00261868,-0.000168344 -0.000807426,-0.000116905 -0.00154939,-0.000291484 -0.00222588,-0.000529971 -0.000676492,-0.000219782 -0.00127972,-0.000501914 -0.00180346,-0.000844836 -0.00053153,-0.000349157 -0.000989798,-0.000748194 -0.0013826,-0.00120646 -0.000391243,-0.000458269 -0.000712343,-0.000974211 -0.000952389,-0.00154315 -0.000246281,-0.000567381 -0.000420859,-0.00118464 -0.000529971,-0.00186113 -0.000130934,-0.000698315 -0.000174579,-0.00144027 -0.000138728,-0.00223367 2.9616e-005,-0.000784045 0.000138728,-0.00162888 0.000313306,-0.0025236l0.00331544 -0.0163636c0,-8.72893e-005 2.18223e-005,-0.000168344 5.9232e-005,-0.000232252 2.80573e-005,-6.5467e-005 7.17019e-005,-0.000116905 0.000115347,-0.00016055 0.000130934,-0.000130934 0.000305513,-0.000218223 0.000523736,-0.000261868 0.000109112,-4.36447e-005 0.000240046,-7.94956e-005 0.000386567,-0.000101318 0.000151198,-2.9616e-005 0.000311748,-5.14383e-005 0.000486326,-7.32607e-005 0.000196401,-2.18223e-005 0.000408389,-4.36447e-005 0.000632848,-5.76733e-005 0.000226017,-2.18223e-005 0.000480091,-2.9616e-005 0.000763782,-2.9616e-005 0.000261868,0 0.000509707,7.79369e-006 0.000741959,2.9616e-005 0.000232252,1.40286e-005 0.000436447,3.5851e-005 0.000611025,5.76733e-005 0.000174579,2.18223e-005 0.000327335,4.36447e-005 0.000466063,7.32607e-005 0.000129375,2.18223e-005 0.000254074,5.76733e-005 0.000363186,0.000101318 0.000174579,4.36447e-005 0.000305513,0.000130934 0.000392802,0.000261868 2.18223e-005,4.36447e-005 4.36447e-005,9.5083e-005 5.76733e-005,0.00016055 7.79369e-006,6.39082e-005 7.79369e-006,0.000144963 -1.40286e-005,0.000232252l-0.00327335 0.0163636c-0.000109112,0.000545558 -0.000180814,0.00104747 -0.000226017,0.00151353 -3.5851e-005,0.000472298 -3.5851e-005,0.000908744 7.79369e-006,0.00132337 6.5467e-005,0.000392802 0.000152756,0.000749753 0.000275897,0.00107709 0.000116905,0.000327335 0.000269662,0.000625054 0.000466063,0.000886922 0.000174579,0.000261868 0.000392802,0.000480091 0.000646876,0.000662464 0.000261868,0.000188607 0.000553352,0.000341364 0.000880687,0.000472298 0.000305513,0.000130934 0.00065467,0.000226017 0.00103968,0.000289925 0.000378773,6.70257e-005 0.000793398,0.000102877 0.00122984,0.000102877 0.00045671,0 0.00090095,-3.5851e-005 0.0013296,-0.000102877 0.000430212,-7.17019e-005 0.000829248,-0.000180814 0.00120023,-0.00033357 0.000394361,-0.000130934 0.00076534,-0.000297719 0.0011067,-0.000495679 0.000347599,-0.000202636 0.000662464,-0.000442682 0.000944595,-0.000726372 0.000305513,-0.000261868 0.000589203,-0.000553352 0.000844836,-0.000880687 0.000260309,-0.000319541 0.000486326,-0.000668698 0.000682727,-0.00103968 0.000218223,-0.000392802 0.000406831,-0.000807426 0.000561146,-0.00124387 0.000158991,-0.000436447 0.000289925,-0.000893157 0.000399037,-0.00137481l0.00327335 -0.0164946c2.18223e-005,-8.72893e-005 4.36447e-005,-0.000168344 7.94956e-005,-0.000232252 2.9616e-005,-6.5467e-005 7.32607e-005,-0.000116905 0.000138728,-0.00016055 4.36447e-005,-6.5467e-005 0.000109112,-0.000124699 0.000188607,-0.000166785 8.72893e-005,-4.36447e-005 0.000182372,-7.32607e-005 0.000291484,-9.5083e-005 0.000109112,-4.36447e-005 0.000240046,-7.94956e-005 0.000385008,-0.000101318 0.000152756,-2.9616e-005 0.000311748,-5.14383e-005 0.000486326,-7.32607e-005 0.000196401,-2.18223e-005 0.000408389,-4.36447e-005 0.000634406,-5.76733e-005 0.000224458,-2.18223e-005 0.000480091,-2.9616e-005 0.000762223,-2.9616e-005 0.000263427,0 0.000501914,7.79369e-006 0.000720137,2.9616e-005 0.000219782,1.40286e-005 0.000414624,3.5851e-005 0.000589203,5.76733e-005 0.000174579,2.18223e-005 0.000327335,4.36447e-005 0.000459828,7.32607e-005 0.000129375,2.18223e-005 0.000238487,5.76733e-005 0.000325776,0.000101318 0.000218223,4.36447e-005 0.000349157,0.000130934 0.000392802,0.000261868 4.36447e-005,4.36447e-005 6.5467e-005,9.5083e-005 8.10544e-005,0.00016055 6.23495e-006,6.39082e-005 6.23495e-006,0.000144963 6.23495e-006,0.000232252l-0.00331699 0.0166271zm0.0299808 -0.00741959c0,0.000414624 -7.79369e-006,0.000851071 -2.9616e-005,0.00130155 -2.18223e-005,0.000458269 -5.76733e-005,0.000924331 -0.000101318,0.00140442 -6.5467e-005,0.000458269 -0.000146521,0.00093836 -0.000232252,0.00142469 -9.5083e-005,0.000487885 -0.000204195,0.000974211 -0.000335129,0.00145586 -0.000109112,0.000501914 -0.000247839,0.000996033 -0.000422418,0.00148392 -0.000166785,0.000486326 -0.000363186,0.000980446 -0.000581409,0.00148236 -0.000196401,0.000480091 -0.000422418,0.000952389 -0.000682727,0.00141222 -0.000263427,0.000464504 -0.000561146,0.000922773 -0.000888481,0.00138104 -0.000305513,0.000436447 -0.000639082,0.000857306 -0.00101006,0.00127349 -0.00037098,0.000406831 -0.00077781,0.000799632 -0.00121582,0.00117061 -0.000413066,0.000392802 -0.000872893,0.000755988 -0.00136701,0.00108332 -0.000501914,0.00033357 -0.00103344,0.000640641 -0.00159926,0.000924331 -0.00109112,0.000567381 -0.00235681,0.00100227 -0.00379709,0.00130778 -0.000698315,0.000152756 -0.0014621,0.000269662 -0.00229758,0.000356951 -0.000829248,8.10544e-005 -0.00173955,0.00012314 -0.00272156,0.00012314l-0.00698159 0c-0.000130934,0 -0.000247839,-6.23495e-006 -0.000355392,-2.80573e-005 -0.00011067,-1.40286e-005 -0.000211988,-3.5851e-005 -0.000299278,-5.9232e-005 -0.000109112,-2.18223e-005 -0.000202636,-6.5467e-005 -0.000291484,-0.00012314 -8.57306e-005,-5.14383e-005 -0.000166785,-0.000116905 -0.000232252,-0.000180814 -0.000130934,-0.000132493 -0.000218223,-0.000307071 -0.000261868,-0.000523736 -4.36447e-005,-0.00011067 -5.76733e-005,-0.000241604 -5.14383e-005,-0.000386567 7.79369e-006,-0.000152756 2.9616e-005,-0.000311748 5.14383e-005,-0.000486326l0.00484456 -0.0240014c4.36447e-005,-0.000327335 0.000130934,-0.000603232 0.000254074,-0.000823014 0.000130934,-0.000224458 0.000291484,-0.000399037 0.000487885,-0.000529971 0.000196401,-0.000152756 0.000406831,-0.000261868 0.000625054,-0.000335129 0.000226017,-6.5467e-005 0.000464504,-0.000101318 0.000727931,-0.000101318l0.00663243 0c0.00111294,0 0.00211677,5.14383e-005 0.00302551,0.00016055 0.000908744,0.000107553 0.0017302,0.000275897 0.00247216,0.00049412 0.000741959,0.000196401 0.00141845,0.000458269 0.00203727,0.000771575 0.000611025,0.000319541 0.00117061,0.000690521 0.00167253,0.00110515 0.000480091,0.000413066 0.000902509,0.000879128 0.00127193,0.00140286 0.000364745,0.000523736 0.000670257,0.00110515 0.000910303,0.00173799 0.000261868,0.000612584 0.000450475,0.00127349 0.000567381,0.00199363 0.000116905,0.000720137 0.000174579,0.00149795 0.000174579,0.0023272zm-0.00589203 0.00065467c0,-0.000458269 -2.02636e-005,-0.000894715 -7.17019e-005,-0.00130934 -5.9232e-005,-0.000414624 -0.000146521,-0.000807426 -0.000275897,-0.00117841 -0.00011067,-0.000392802 -0.000263427,-0.000755988 -0.000459828,-0.00108332 -0.000196401,-0.000335129 -0.000434888,-0.000640641 -0.000718578,-0.000924331 -0.000263427,-0.00028369 -0.000567381,-0.000522177 -0.000910303,-0.000734165 -0.000349157,-0.00021043 -0.000726372,-0.000400596 -0.001141,-0.000575174 -0.000436447,-0.000152756 -0.00093836,-0.000260309 -0.00150574,-0.00033357 -0.000567381,-6.5467e-005 -0.00120023,-0.000101318 -0.00189854,-0.000101318l-0.00292419 0 -0.00379553 0.0187204 0.00296628 0c0.000741959,0 0.00142625,-4.36447e-005 0.00205909,-0.000130934 0.000625054,-8.72893e-005 0.00119243,-0.000218223 0.00169435,-0.000392802 0.000501914,-0.000174579 0.000982005,-0.000392802 0.00143248,-0.000646876 0.000458269,-0.000247839 0.000880687,-0.00053153 0.00127349,-0.000837042 0.0007404,-0.00065467 0.00139663,-0.00139663 0.00196245,-0.00222588 0.000285249,-0.000414624 0.000539323,-0.000843277 0.000757547,-0.00127972 0.000224458,-0.000436447 0.000420859,-0.000879128 0.000595438,-0.00133896 0.000174579,-0.000458269 0.0003211,-0.000922773 0.000438005,-0.00140286 0.000115347,-0.000472298 0.000216665,-0.000953948 0.000303954,-0.00143248 8.72893e-005,-0.000480091 0.000146521,-0.000952389 0.000174579,-0.00141066 2.9616e-005,-0.000466063 4.36447e-005,-0.000924331 4.36447e-005,-0.0013826zm0.0295802 0.0148376c4.36447e-005,0.000260309 6.5467e-005,0.00049412 7.94956e-005,0.000690521 7.79369e-006,0.000202636 7.79369e-006,0.000377215 7.79369e-006,0.00053153 0,0.000152756 -2.18223e-005,0.00028369 -7.17019e-005,0.000391243 -4.36447e-005,0.00011067 -0.000124699,0.000196401 -0.000233811,0.000263427 -8.72893e-005,8.57306e-005 -0.000204195,0.000152756 -0.000356951,0.000202636 -0.000151198,4.36447e-005 -0.000341364,7.94956e-005 -0.000558028,0.000102877 -0.000241604,2.18223e-005 -0.000501914,3.5851e-005 -0.000801191,3.5851e-005 -0.000297719,7.79369e-006 -0.000640641,7.79369e-006 -0.00103188,7.79369e-006 -0.000263427,0 -0.000503472,0 -0.000720137,-7.79369e-006 -0.000218223,0 -0.000416183,-1.40286e-005 -0.000590762,-3.5851e-005 -0.000349157,0 -0.000609466,-4.52034e-005 -0.000784045,-0.000130934 -0.000109112,-2.18223e-005 -0.000190166,-5.14383e-005 -0.000247839,-9.5083e-005 -5.76733e-005,-3.74097e-005 -0.000101318,-7.94956e-005 -0.000144963,-0.000124699 -4.36447e-005,-6.5467e-005 -7.32607e-005,-0.000137169 -9.5083e-005,-0.000224458 -2.18223e-005,-7.94956e-005 -3.5851e-005,-0.000168344 -3.5851e-005,-0.000254074l-0.000741959 -0.00554287 -0.0103422 0 -0.00288055 0.00541194c-4.36447e-005,8.57306e-005 -9.35243e-005,0.00017302 -0.00016055,0.000254074 -5.76733e-005,8.72893e-005 -0.00012314,0.000158991 -0.000188607,0.000226017 -6.5467e-005,6.39082e-005 -0.000138728,0.000129375 -0.000226017,0.000180814 -8.72893e-005,5.76733e-005 -0.000188607,0.000101318 -0.000297719,0.00012314 -0.000130934,4.52034e-005 -0.000275897,8.10544e-005 -0.000436447,0.000102877 -0.000158991,2.80573e-005 -0.000349157,4.98796e-005 -0.000567381,7.32607e-005 -0.000196401,2.18223e-005 -0.000420859,3.5851e-005 -0.000682727,3.5851e-005 -0.000255633,7.79369e-006 -0.000539323,7.79369e-006 -0.000844836,7.79369e-006 -0.000305513,0 -0.000587644,0 -0.000843277,-7.79369e-006 -0.000261868,0 -0.000487885,-1.40286e-005 -0.000684286,-3.5851e-005 -0.000174579,-2.33811e-005 -0.000319541,-6.70257e-005 -0.000428653,-0.000124699 -0.000116905,-6.5467e-005 -0.000202636,-0.000138728 -0.000269662,-0.000226017 -6.39082e-005,-6.5467e-005 -0.000101318,-0.000158991 -0.000101318,-0.000282132 -6.23495e-006,-0.000124699 1.55874e-005,-0.000263427 5.9232e-005,-0.000416183 4.20859e-005,-0.000129375 0.000109112,-0.000303954 0.000194842,-0.000508149 8.88481e-005,-0.000204195 0.000196401,-0.000428653 0.000328894,-0.000668698l0.0133958 -0.0244379c6.5467e-005,-0.000130934 0.000138728,-0.000240046 0.000218223,-0.000341364 7.94956e-005,-9.5083e-005 0.000152756,-0.000182372 0.000218223,-0.000269662 6.5467e-005,-6.5467e-005 0.000152756,-0.000130934 0.000255633,-0.000188607 0.000107553,-6.70257e-005 0.000224458,-0.000116905 0.000355392,-0.00016055 0.000130934,-2.18223e-005 0.00028369,-5.14383e-005 0.000458269,-8.10544e-005 0.000174579,-2.80573e-005 0.00037098,-4.98796e-005 0.000589203,-4.98796e-005 0.000218223,-2.18223e-005 0.000480091,-3.5851e-005 0.00077781,-3.5851e-005 0.000291484,-7.79369e-006 0.000618819,-7.79369e-006 0.000967976,-7.79369e-006 0.000436447,0 0.000821455,0 0.00114879,7.79369e-006 0.000335129,0 0.000618819,1.40286e-005 0.000858865,3.5851e-005 0.000240046,0 0.000458269,2.18223e-005 0.000646876,4.98796e-005 0.000196401,2.9616e-005 0.000355392,5.9232e-005 0.000487885,8.10544e-005 0.000130934,4.36447e-005 0.000246281,9.35243e-005 0.000341364,0.00016055 9.5083e-005,5.76733e-005 0.00016055,0.00012314 0.000180814,0.000188607 4.36447e-005,8.72893e-005 8.88481e-005,0.000182372 0.000124699,0.000291484 2.9616e-005,0.000107553 4.98796e-005,0.000232252 4.98796e-005,0.000363186l0.00362251 0.0244379zm-0.00837822 -0.0202044l0 0 -0.00619754 0.0116937 0.00776875 0 -0.00157121 -0.0116937zm0.041107 -0.00318606c0,0.000130934 0,0.000305513 0,0.000522177 -2.18223e-005,0.00011067 -4.36447e-005,0.000219782 -6.5467e-005,0.000335129 -2.18223e-005,0.000109112 -4.36447e-005,0.000233811 -6.5467e-005,0.000363186 -4.36447e-005,0.000263427 -8.72893e-005,0.000523736 -0.000130934,0.000787163 -4.36447e-005,0.000130934 -8.72893e-005,0.000254074 -0.000130934,0.000363186 -4.36447e-005,0.000116905 -8.72893e-005,0.000224458 -0.000130934,0.00033357 -4.36447e-005,0.00011067 -8.72893e-005,0.000211988 -0.000137169,0.000299278 -4.36447e-005,9.35243e-005 -0.000102877,0.000182372 -0.000166785,0.000268103 -4.52034e-005,6.70257e-005 -9.5083e-005,0.000116905 -0.000162109,0.00016055 -5.76733e-005,3.5851e-005 -0.00012314,5.76733e-005 -0.000187049,5.76733e-005 -0.00011067,0 -0.000219782,-2.80573e-005 -0.000335129,-8.72893e-005 -0.000124699,-5.76733e-005 -0.000255633,-0.000130934 -0.000408389,-0.000216665 -0.000151198,-8.88481e-005 -0.000319541,-0.000174579 -0.00049412,-0.000269662 -0.000180814,-8.72893e-005 -0.000378773,-0.000190166 -0.000596997,-0.000299278 -0.000216665,-8.57306e-005 -0.00045671,-0.000180814 -0.000712343,-0.000282132 -0.000261868,-0.000102877 -0.000529971,-0.000196401 -0.000813661,-0.000285249 -0.00028369,-8.57306e-005 -0.000596997,-0.000152756 -0.00093836,-0.000194842 -0.000342922,-4.36447e-005 -0.000698315,-6.5467e-005 -0.00106929,-6.5467e-005 -0.00037098,0 -0.000720137,2.18223e-005 -0.00103968,7.17019e-005 -0.000327335,4.36447e-005 -0.000618819,0.000124699 -0.000880687,0.000232252 -0.000261868,0.000109112 -0.000501914,0.000241604 -0.000720137,0.000386567 -0.000218223,0.000152756 -0.000414624,0.000311748 -0.000589203,0.000486326 -0.000174579,0.000174579 -0.000327335,0.000349157 -0.000458269,0.00053153 -0.000130934,0.000190166 -0.000240046,0.000385008 -0.000327335,0.000603232 -6.5467e-005,0.000218223 -0.000115347,0.000438005 -0.00016055,0.00065467 -3.5851e-005,0.000218223 -5.76733e-005,0.000436447 -5.76733e-005,0.00065467 0,0.000261868 3.5851e-005,0.000501914 0.000102877,0.000727931 6.5467e-005,0.000218223 0.000158991,0.000428653 0.000289925,0.000625054 0.000109112,0.000196401 0.000247839,0.000392802 0.000422418,0.000575174 0.000166785,0.000188607 0.000363186,0.000363186 0.000581409,0.000515942 0.000218223,0.000174579 0.000452034,0.000341364 0.000690521,0.000501914 0.000241604,0.00016055 0.000487885,0.000327335 0.000749753,0.000501914 0.00028369,0.000152756 0.000567381,0.000305513 0.000851071,0.000464504 0.00028369,0.000152756 0.000567381,0.0003211 0.000851071,0.000495679 0.000261868,0.000174579 0.000529971,0.000349157 0.00081522,0.000529971 0.000275897,0.000190166 0.000558028,0.000386567 0.000843277,0.00060479 0.000261868,0.000196401 0.000515942,0.000414624 0.000755988,0.000646876 0.000240046,0.000240046 0.000466063,0.000487885 0.000682727,0.000748194 0.000438005,0.000523736 0.000787163,0.00113632 0.00104747,0.00183308 0.000109112,0.000349157 0.00019796,0.000720137 0.000255633,0.00111294 6.5467e-005,0.000392802 9.35243e-005,0.000807426 9.35243e-005,0.00124387 0,0.000676492 -6.5467e-005,0.00132493 -0.000196401,0.00194219 -0.000129375,0.000618819 -0.000327335,0.00122205 -0.000587644,0.00181125 -0.000285249,0.000567381 -0.000612584,0.00109891 -0.000989798,0.00160082 -0.000385008,0.00049412 -0.000823014,0.000952389 -0.00132337,0.00136701 -0.000480091,0.000414624 -0.00102565,0.000785604 -0.00162265,0.00111917 -0.000603232,0.000327335 -0.0012579,0.000625054 -0.00195622,0.000888481 -0.000698315,0.000238487 -0.00143248,0.000413066 -0.00219626,0.000529971 -0.000771575,0.000109112 -0.001579,0.000168344 -0.00243007,0.000168344 -0.000478532,0 -0.000930566,-1.55874e-005 -0.00135143,-4.36447e-005 -0.000422418,-2.9616e-005 -0.000829248,-8.88481e-005 -0.00122205,-0.000174579 -0.000392802,-6.70257e-005 -0.000763782,-0.000152756 -0.00111294,-0.000247839 -0.000349157,-9.5083e-005 -0.000676492,-0.000190166 -0.000982005,-0.000277455 -0.00028369,-0.000107553 -0.000553352,-0.000218223 -0.000813661,-0.00033357 -0.000255633,-0.000109112 -0.000495679,-0.000233811 -0.000713902,-0.000364745 -0.000392802,-0.000218223 -0.000698315,-0.000434888 -0.000916538,-0.000653111 -8.72893e-005,-0.000109112 -0.00016055,-0.000241604 -0.000218223,-0.000400596 -5.76733e-005,-0.000152756 -8.72893e-005,-0.000342922 -8.72893e-005,-0.000559587 0,-6.5467e-005 7.79369e-006,-0.000146521 2.9616e-005,-0.000233811 1.40286e-005,-8.57306e-005 3.5851e-005,-0.000180814 5.76733e-005,-0.000289925 0,-0.000109112 7.79369e-006,-0.000226017 2.9616e-005,-0.000356951 1.40286e-005,-0.00012314 3.5851e-005,-0.000254074 5.76733e-005,-0.000385008 2.18223e-005,-0.000130934 5.14383e-005,-0.000261868 8.72893e-005,-0.000392802 3.5851e-005,-0.000130934 6.5467e-005,-0.000261868 8.72893e-005,-0.000392802 4.36447e-005,-0.000152756 8.72893e-005,-0.00028369 0.000130934,-0.000408389 4.36447e-005,-0.00012314 8.72893e-005,-0.000246281 0.000130934,-0.000377215 6.5467e-005,-0.000109112 0.000124699,-0.00021043 0.000174579,-0.000299278 5.14383e-005,-8.57306e-005 0.000109112,-0.000158991 0.000174579,-0.000224458 6.5467e-005,-8.72893e-005 0.000130934,-0.000146521 0.000196401,-0.000174579 6.5467e-005,-2.9616e-005 0.000130934,-4.36447e-005 0.000196401,-4.36447e-005 0.000109112,0 0.000240046,2.18223e-005 0.000385008,7.17019e-005 0.000152756,4.52034e-005 0.000313306,0.000124699 0.000487885,0.000233811 0.000152756,0.000109112 0.000335129,0.000226017 0.000545558,0.000356951 0.00021043,0.00012314 0.000436447,0.000254074 0.000676492,0.000385008 0.000261868,0.000130934 0.000537765,0.000261868 0.000829248,0.000385008 0.000289925,0.000130934 0.000611025,0.000247839 0.000960182,0.000356951 0.000327335,0.000109112 0.000698315,0.000196401 0.00110515,0.000254074 0.000414624,6.5467e-005 0.000857306,9.5083e-005 0.00133896,9.5083e-005 0.000413066,0 0.000807426,-2.9616e-005 0.00117061,-9.5083e-005 0.000369421,-5.76733e-005 0.000704549,-0.000144963 0.00101006,-0.000254074 0.000327335,-0.000109112 0.000626613,-0.000232252 0.000886922,-0.00037098 0.000269662,-0.000138728 0.000509707,-0.000305513 0.000727931,-0.000501914 0.000218223,-0.000174579 0.000408389,-0.00037098 0.000561146,-0.000581409 0.000158991,-0.000218223 0.000289925,-0.00044424 0.000399037,-0.000684286 0.000109112,-0.000240046 0.000196401,-0.000501914 0.000254074,-0.00077781 6.5467e-005,-0.000269662 9.5083e-005,-0.000553352 9.5083e-005,-0.000837042 0,-0.000261868 -2.9616e-005,-0.000508149 -9.5083e-005,-0.000748194 -6.5467e-005,-0.000233811 -0.000166785,-0.000452034 -0.000297719,-0.000648435 -0.000130934,-0.000196401 -0.00028369,-0.000385008 -0.000450475,-0.000559587 -0.000174579,-0.000182372 -0.000356951,-0.000356951 -0.000553352,-0.00053153 -0.000218223,-0.000174579 -0.00044424,-0.000341364 -0.000682727,-0.00049412 -0.000240046,-0.00016055 -0.000495679,-0.000313306 -0.000757547,-0.000466063 -0.000261868,-0.000151198 -0.000529971,-0.000303954 -0.000807426,-0.000464504 -0.000275897,-0.000152756 -0.000545558,-0.000319541 -0.000805867,-0.00049412 -0.000285249,-0.000174579 -0.000568939,-0.000349157 -0.000844836,-0.00053153 -0.00028369,-0.000174579 -0.000551793,-0.000363186 -0.00081522,-0.000559587 -0.000260309,-0.000196401 -0.000508149,-0.000414624 -0.000748194,-0.000648435 -0.000240046,-0.000240046 -0.000472298,-0.000486326 -0.000690521,-0.000748194 -0.000196401,-0.000261868 -0.000378773,-0.000545558 -0.000553352,-0.000851071 -0.000166785,-0.000305513 -0.000319541,-0.000632848 -0.000450475,-0.000982005 -0.000130934,-0.000349157 -0.000226017,-0.000726372 -0.000291484,-0.00114255 -6.5467e-005,-0.000406831 -0.000101318,-0.000843277 -0.000101318,-0.00130155 0,-0.0012657 0.000261868,-0.0024441 0.000785604,-0.00353366 0.000261868,-0.000545558 0.000567381,-0.00104747 0.000922773,-0.00151353 0.000349157,-0.000458269 0.000757547,-0.000886922 0.00121582,-0.00127972 0.00045671,-0.00037098 0.000958624,-0.000706108 0.00150418,-0.00101162 0.000545558,-0.000297719 0.00113476,-0.000559587 0.00176761,-0.00077781 0.000632848,-0.000218223 0.00128752,-0.000386567 0.0019796,-0.00049412 0.000682727,-0.000109112 0.00140286,-0.00016055 0.00216665,-0.00016055 0.00037098,0 0.000720137,1.40286e-005 0.0010615,3.5851e-005 0.000335129,2.9616e-005 0.000662464,7.32607e-005 0.000989798,0.000138728 0.000305513,4.36447e-005 0.000611025,9.35243e-005 0.000908744,0.00016055 0.000291484,6.39082e-005 0.000575174,0.000144963 0.000835483,0.000232252 0.000523736,0.000174579 0.000961741,0.000349157 0.0013109,0.000523736 0.000391243,0.000218223 0.000653111,0.000392802 0.000784045,0.000523736 6.70257e-005,6.5467e-005 0.000130934,0.000130934 0.000190166,0.000196401 5.14383e-005,6.5467e-005 9.35243e-005,0.000130934 0.000115347,0.000196401 4.36447e-005,8.72893e-005 6.5467e-005,0.000174579 8.10544e-005,0.000268103 6.23495e-006,8.88481e-005 6.23495e-006,0.000190166 6.23495e-006,0.000299278zm0.0223882 -0.0012657c0,4.36447e-005 -7.79369e-006,0.000101318 -2.33811e-005,0.000166785 -1.40286e-005,7.32607e-005 -2.18223e-005,0.00016055 -2.18223e-005,0.000269662 -2.18223e-005,0.000109112 -3.5851e-005,0.000218223 -4.36447e-005,0.00033357 -6.23495e-006,0.00011067 -2.18223e-005,0.000233811 -4.36447e-005,0.000364745 -2.02636e-005,0.000130934 -4.20859e-005,0.000269662 -7.17019e-005,0.000414624 -2.18223e-005,0.000144963 -5.9232e-005,0.00028369 -0.000101318,0.000413066 -4.36447e-005,0.000152756 -8.88481e-005,0.000285249 -0.000132493,0.000408389 -4.20859e-005,0.00012314 -8.57306e-005,0.000247839 -0.000130934,0.000378773 -6.5467e-005,0.000109112 -0.000129375,0.000216665 -0.000196401,0.000311748 -6.39082e-005,0.000101318 -0.000130934,0.000190166 -0.000196401,0.000254074 -6.39082e-005,8.88481e-005 -0.000137169,0.000152756 -0.000224458,0.000196401 -8.10544e-005,4.52034e-005 -0.000166785,6.70257e-005 -0.000255633,6.70257e-005l-0.00986058 0 -0.00135298 0.00671972 0.00837822 0c8.72893e-005,0 0.000166785,2.18223e-005 0.000232252,5.76733e-005 6.5467e-005,4.36447e-005 0.000116905,9.5083e-005 0.00016055,0.00016055 4.36447e-005,6.5467e-005 7.94956e-005,0.000152756 0.000101318,0.000254074 2.18223e-005,0.000109112 2.9616e-005,0.000226017 2.9616e-005,0.000356951 0,4.36447e-005 0,0.000101318 0,0.000166785 0,7.32607e-005 0,0.00016055 0,0.000269662 -2.18223e-005,0.000109112 -4.36447e-005,0.000218223 -6.5467e-005,0.00033357 -2.18223e-005,0.00011067 -4.36447e-005,0.000233811 -6.5467e-005,0.000364745 -2.18223e-005,0.000130934 -4.36447e-005,0.000261868 -7.32607e-005,0.000392802 -2.18223e-005,0.000130934 -5.76733e-005,0.000260309 -0.000101318,0.000392802 -2.18223e-005,0.000152756 -5.14383e-005,0.00028369 -9.5083e-005,0.000406831 -4.36447e-005,0.00012314 -0.000101318,0.000247839 -0.000166785,0.000378773 -4.36447e-005,0.000107553 -9.5083e-005,0.000202636 -0.00016055,0.000289925 -5.76733e-005,8.72893e-005 -0.00012314,0.000166785 -0.000188607,0.000233811 -6.5467e-005,6.39082e-005 -0.000138728,0.000115347 -0.000226017,0.000158991 -7.94956e-005,3.74097e-005 -0.000166785,5.9232e-005 -0.000254074,5.9232e-005l-0.00833457 0 -0.00157121 0.00776719 0.00994942 0c8.72893e-005,0 0.000166785,2.18223e-005 0.000232252,5.76733e-005 6.5467e-005,4.36447e-005 0.000116905,9.5083e-005 0.00016055,0.00016055 8.72893e-005,0.000174579 0.000130934,0.000392802 0.000130934,0.00065467 0,6.5467e-005 0,0.000130934 0,0.000202636 0,8.10544e-005 0,0.000168344 0,0.000275897 -2.18223e-005,0.00011067 -3.74097e-005,0.000219782 -4.36447e-005,0.000335129 -7.79369e-006,0.000109112 -2.18223e-005,0.000233811 -4.36447e-005,0.000363186 -4.36447e-005,0.000132493 -7.94956e-005,0.000269662 -0.000109112,0.000416183 -2.9616e-005,0.000144963 -6.5467e-005,0.000282132 -0.000109112,0.000413066 -2.18223e-005,0.000132493 -5.14383e-005,0.000263427 -9.5083e-005,0.000386567 -4.36447e-005,0.000130934 -0.000101318,0.000247839 -0.000166785,0.000355392 -4.36447e-005,0.000109112 -9.5083e-005,0.000219782 -0.00016055,0.000313306 -5.76733e-005,0.000102877 -0.00012314,0.000188607 -0.000188607,0.000255633 -8.72893e-005,6.39082e-005 -0.000168344,0.000115347 -0.000240046,0.000158991 -7.32607e-005,3.5851e-005 -0.000152756,5.76733e-005 -0.000240046,5.76733e-005l-0.0138774 0c-0.000109112,0 -0.000218223,-6.23495e-006 -0.000319541,-2.80573e-005 -0.000109112,-1.40286e-005 -0.000204195,-3.5851e-005 -0.000291484,-5.9232e-005 -8.72893e-005,-4.36447e-005 -0.000174579,-8.72893e-005 -0.000254074,-0.000144963 -8.72893e-005,-5.14383e-005 -0.00016055,-0.000116905 -0.000226017,-0.000204195 -4.36447e-005,-6.5467e-005 -8.57306e-005,-0.000144963 -0.00012314,-0.000232252 -4.36447e-005,-8.72893e-005 -7.32607e-005,-0.000182372 -9.5083e-005,-0.000291484 -2.18223e-005,-0.000107553 -2.80573e-005,-0.000232252 -2.80573e-005,-0.000363186 0,-0.000137169 6.23495e-006,-0.000289925 2.80573e-005,-0.000464504l0.00484456 -0.0240014c6.5467e-005,-0.000327335 0.000152756,-0.000603232 0.000275897,-0.000823014 0.000116905,-0.000224458 0.000269662,-0.000399037 0.000466063,-0.000529971 0.000196401,-0.000152756 0.000406831,-0.000261868 0.000625054,-0.000335129 0.000218223,-6.5467e-005 0.00044424,-0.000101318 0.000682727,-0.000101318l0.0137029 0c0.000174579,0 0.000313306,6.5467e-005 0.000416183,0.000204195 0.000101318,0.000130934 0.000152756,0.000341364 0.000152756,0.000625054zm0.0227778 0.024787c-2.18223e-005,0.000152756 -5.76733e-005,0.000303954 -0.000101318,0.000450475 -5.14383e-005,0.000152756 -0.000116905,0.000291484 -0.000204195,0.000422418 -8.72893e-005,0.000129375 -0.000174579,0.000246281 -0.000269662,0.000355392 -8.72893e-005,0.000109112 -0.000188607,0.00021043 -0.000297719,0.000297719 -0.000109112,8.72893e-005 -0.000226017,0.000152756 -0.000355392,0.000204195 -0.000124699,5.76733e-005 -0.000255633,0.000101318 -0.000386567,0.000144963 -0.000130934,4.52034e-005 -0.000261868,7.32607e-005 -0.000400596,9.5083e-005 -0.000130934,2.18223e-005 -0.000275897,3.5851e-005 -0.000428653,3.5851e-005l-0.00235681 0c-0.000260309,0 -0.000500355,-1.40286e-005 -0.000712343,-3.5851e-005 -0.000218223,-2.9616e-005 -0.000399037,-7.17019e-005 -0.000553352,-0.000138728 -0.00017302,-4.36447e-005 -0.000327335,-0.000107553 -0.000464504,-0.000196401 -0.000144963,-8.57306e-005 -0.000275897,-0.000196401 -0.000406831,-0.000327335 -0.000109112,-0.000130934 -0.000218223,-0.000282132 -0.000319541,-0.00045671 -0.00011067,-0.000174579 -0.000204195,-0.000372538 -0.000291484,-0.000590762 -8.72893e-005,-0.000216665 -0.000182372,-0.000464504 -0.00028369,-0.000748194 -0.000101318,-0.000275897 -0.000196401,-0.000581409 -0.00028369,-0.000908744l-0.00405895 -0.0123062c-0.000174579,-0.000480091 -0.000327335,-0.000960182 -0.000464504,-0.00144027 -0.000146521,-0.000480091 -0.000277455,-0.000960182 -0.000408389,-0.00144027 -0.000130934,-0.000501914 -0.000261868,-0.000982005 -0.000392802,-0.0014543 -0.000130934,-0.000472298 -0.000261868,-0.000944595 -0.000392802,-0.00142625l0 0c-8.72893e-005,0.000545558 -0.000166785,0.00109891 -0.000246281,0.0016585 -7.94956e-005,0.000559587 -0.000168344,0.00111294 -0.000277455,0.0016585 -8.72893e-005,0.000545558 -0.000180814,0.00109112 -0.000291484,0.00163667 -0.000101318,0.000545558 -0.000208871,0.00109112 -0.000319541,0.00163667l-0.0027917 0.0140505c-2.18223e-005,8.72893e-005 -5.14383e-005,0.00016055 -9.5083e-005,0.000226017 -3.5851e-005,6.5467e-005 -7.94956e-005,0.00012314 -0.00012314,0.000168344 -4.52034e-005,6.39082e-005 -0.000109112,0.000115347 -0.000190166,0.000158991 -8.72893e-005,4.36447e-005 -0.000180814,7.94956e-005 -0.000289925,0.000101318 -0.000109112,4.36447e-005 -0.000233811,8.88481e-005 -0.000364745,0.000124699 -0.000137169,4.36447e-005 -0.000289925,7.17019e-005 -0.000464504,9.5083e-005 -0.000152756,2.18223e-005 -0.000335129,3.5851e-005 -0.000545558,3.5851e-005 -0.000211988,7.79369e-006 -0.000436447,7.79369e-006 -0.000676492,7.79369e-006 -0.000261868,0 -0.00049412,0 -0.00069208,-7.79369e-006 -0.000202636,0 -0.000377215,-1.40286e-005 -0.000529971,-3.5851e-005 -0.000174579,-2.33811e-005 -0.000319541,-5.14383e-005 -0.000436447,-9.5083e-005 -0.000115347,-3.5851e-005 -0.000218223,-8.10544e-005 -0.000305513,-0.000124699 -8.72893e-005,-2.18223e-005 -0.000158991,-5.76733e-005 -0.000226017,-0.000101318 -5.76733e-005,-4.36447e-005 -0.000101318,-9.5083e-005 -0.00012314,-0.000158991 -4.36447e-005,-8.88481e-005 -4.36447e-005,-0.000219782 0,-0.000394361l0.00497393 -0.0247855c6.70257e-005,-0.000327335 0.000168344,-0.000618819 0.000307071,-0.000872893 0.000137169,-0.000254074 0.000327335,-0.000458269 0.000565822,-0.000611025 0.000219782,-0.000174579 0.000459828,-0.000305513 0.000713902,-0.000392802 0.000261868,-8.72893e-005 0.00053153,-0.000130934 0.000813661,-0.000130934l0.00292419 0c0.000240046,0 0.000458269,1.40286e-005 0.00065467,3.5851e-005 0.000196401,2.9616e-005 0.00037098,7.32607e-005 0.000523736,0.000138728 0.000174579,4.36447e-005 0.000335129,0.000109112 0.000487885,0.000188607 0.000144963,8.72893e-005 0.000275897,0.000182372 0.000385008,0.000291484 0.000109112,0.000130934 0.000218223,0.000268103 0.000319541,0.000422418 0.000109112,0.000152756 0.000204195,0.000319541 0.000291484,0.00049412 8.72893e-005,0.000196401 0.000174579,0.000406831 0.000261868,0.000625054 8.72893e-005,0.000226017 0.000174579,0.000466063 0.000261868,0.000727931l0.0041026 0.0124372c0.000130934,0.000392802 0.000260309,0.000784045 0.000385008,0.00117685 0.000130934,0.000394361 0.000247839,0.000785604 0.000355392,0.00117841 0.000218223,0.000785604 0.000438005,0.00157121 0.00065467,0.00235681l4.36447e-005 0c8.88481e-005,-0.000501914 0.000174579,-0.00102565 0.000261868,-0.00155562 8.72893e-005,-0.00053153 0.000174579,-0.00106306 0.000261868,-0.00158524 0.000109112,-0.000545558 0.000211988,-0.00109268 0.000305513,-0.00163044 9.5083e-005,-0.00053153 0.000196401,-0.00105527 0.000305513,-0.00155718l0.00261868 -0.013003c2.18223e-005,-6.5467e-005 4.36447e-005,-0.000130934 7.32607e-005,-0.000188607 2.18223e-005,-6.5467e-005 5.76733e-005,-0.000116905 0.000101318,-0.00016055 6.5467e-005,-6.5467e-005 0.000130934,-0.000124699 0.00021043,-0.000166785 7.32607e-005,-4.36447e-005 0.00016055,-7.32607e-005 0.000269662,-9.5083e-005 0.000109112,-4.36447e-005 0.000232252,-7.94956e-005 0.000363186,-0.000101318 0.000130934,-2.9616e-005 0.000269662,-5.14383e-005 0.000422418,-7.32607e-005 0.000174579,0 0.000363186,-7.79369e-006 0.000559587,-2.18223e-005 0.000204195,-1.55874e-005 0.000422418,-2.18223e-005 0.000662464,-2.18223e-005 0.000261868,0 0.00049412,6.23495e-006 0.000698315,2.18223e-005 0.000204195,1.40286e-005 0.000391243,2.18223e-005 0.000565822,2.18223e-005 0.000154315,2.18223e-005 0.000291484,4.36447e-005 0.000422418,7.32607e-005 0.000124699,2.18223e-005 0.000233811,5.76733e-005 0.0003211,0.000101318 8.72893e-005,2.18223e-005 0.000152756,5.14383e-005 0.00021043,9.5083e-005 4.98796e-005,4.20859e-005 9.35243e-005,0.000101318 0.000138728,0.000166785 2.18223e-005,4.36447e-005 3.5851e-005,9.5083e-005 3.5851e-005,0.00016055 7.79369e-006,5.76733e-005 7.79369e-006,0.00012314 7.79369e-006,0.000188607l-0.00501914 0.0248743zm0.0292388 -0.0246998c0,4.36447e-005 0,0.000109112 -7.79369e-006,0.000188607 0,8.72893e-005 -1.55874e-005,0.000182372 -3.74097e-005,0.000291484 0,0.000109112 -6.23495e-006,0.000218223 -2.80573e-005,0.000335129 -1.55874e-005,0.000107553 -3.5851e-005,0.000232252 -5.76733e-005,0.000363186 -2.18223e-005,0.000152756 -5.14383e-005,0.000297719 -9.5083e-005,0.000436447 -3.74097e-005,0.000137169 -7.94956e-005,0.00028369 -0.00012314,0.000434888 -4.52034e-005,0.000263427 -0.000130934,0.000523736 -0.000261868,0.000787163 -4.36447e-005,0.000130934 -9.5083e-005,0.000238487 -0.00016055,0.00033357 -6.5467e-005,0.000101318 -0.000146521,0.000190166 -0.000232252,0.000275897 -6.70257e-005,6.70257e-005 -0.000138728,0.000116905 -0.000226017,0.00016055 -7.94956e-005,3.74097e-005 -0.000166785,5.9232e-005 -0.000254074,5.9232e-005l-0.00689586 0 -0.0044502 0.0222105c-2.18223e-005,8.72893e-005 -5.14383e-005,0.00016055 -9.5083e-005,0.000226017 -3.5851e-005,6.5467e-005 -7.94956e-005,0.00012314 -0.00012314,0.000168344 -0.000130934,0.000129375 -0.000305513,0.000216665 -0.000523736,0.000260309 -0.000130934,4.36447e-005 -0.000261868,8.88481e-005 -0.000408389,0.000124699 -0.000144963,4.36447e-005 -0.000311748,7.17019e-005 -0.000508149,9.5083e-005 -0.000174579,2.18223e-005 -0.000378773,3.5851e-005 -0.000611025,3.5851e-005 -0.000232252,7.79369e-006 -0.000480091,7.79369e-006 -0.000741959,7.79369e-006 -0.00028369,0 -0.000537765,0 -0.000757547,-7.79369e-006 -0.000224458,0 -0.000420859,-1.40286e-005 -0.000595438,-3.5851e-005 -0.000174579,-2.33811e-005 -0.000327335,-5.14383e-005 -0.000464504,-9.5083e-005 -0.000130934,-3.5851e-005 -0.000255633,-8.10544e-005 -0.000364745,-0.000124699 -0.000174579,-4.36447e-005 -0.000305513,-0.000130934 -0.000392802,-0.000260309 -2.18223e-005,-4.52034e-005 -3.5851e-005,-0.000102877 -3.5851e-005,-0.000168344 -7.79369e-006,-6.5467e-005 -7.79369e-006,-0.000138728 -7.79369e-006,-0.000226017l0.00445176 -0.0222105 -0.00685065 0c-0.00011067,0 -0.000204195,-2.18223e-005 -0.000285249,-5.9232e-005 -7.94956e-005,-4.36447e-005 -0.000130934,-9.35243e-005 -0.000152756,-0.00016055 -8.57306e-005,-0.000174579 -0.000130934,-0.000392802 -0.000130934,-0.000653111 0,-6.70257e-005 0,-0.000130934 7.79369e-006,-0.000211988 0,-7.17019e-005 1.40286e-005,-0.000158991 3.74097e-005,-0.000268103 0,-0.00011067 6.23495e-006,-0.000233811 2.80573e-005,-0.000364745 1.55874e-005,-0.000130934 3.5851e-005,-0.000268103 5.76733e-005,-0.000422418 2.18223e-005,-0.000129375 5.14383e-005,-0.000260309 8.88481e-005,-0.000399037 3.5851e-005,-0.000130934 6.39082e-005,-0.000275897 8.57306e-005,-0.000428653 4.36447e-005,-0.000152756 8.88481e-005,-0.000299278 0.000138728,-0.000428653 4.36447e-005,-0.000130934 0.000101318,-0.000247839 0.000166785,-0.000356951 6.5467e-005,-0.000130934 0.000132493,-0.000240046 0.000196401,-0.000341364 6.5467e-005,-9.5083e-005 0.000132493,-0.000182372 0.000196401,-0.000269662 6.5467e-005,-6.5467e-005 0.000138728,-0.000116905 0.000226017,-0.00016055 7.94956e-005,-3.5851e-005 0.000166785,-5.76733e-005 0.000254074,-5.76733e-005l0.0194203 0c8.72893e-005,0 0.000166785,2.18223e-005 0.000232252,5.76733e-005 6.5467e-005,4.36447e-005 0.000116905,9.5083e-005 0.00016055,0.00016055 4.20859e-005,8.72893e-005 7.94956e-005,0.000188607 0.000101318,0.000297719 2.18223e-005,0.000116905 2.9616e-005,0.000247839 2.9616e-005,0.000400596zm0.021163 0.00510487c0,0.000459828 -2.80573e-005,0.000910303 -9.35243e-005,0.00135298 -5.9232e-005,0.00044424 -0.000144963,0.000894715 -0.000255633,0.00135298 -0.000130934,0.000436447 -0.000289925,0.000872893 -0.000486326,0.00129531 -0.000196401,0.000428653 -0.000428653,0.000843277 -0.00069208,0.00123608 -0.000282132,0.000392802 -0.000595438,0.000771575 -0.000944595,0.00113476 -0.000349157,0.000363186 -0.000734165,0.000698315 -0.00114879,0.00100227 -0.000436447,0.000328894 -0.000916538,0.000618819 -0.00144027,0.000880687 -0.000523736,0.000255633 -0.00109112,0.000472298 -0.00170214,0.000646876 0.000327335,0.000154315 0.000632848,0.000364745 0.000916538,0.000626613 0.00028369,0.000268103 0.000545558,0.000595438 0.000785604,0.00098824 0.000218223,0.000414624 0.000422418,0.000896274 0.000618819,0.00144807 0.000188607,0.000545558 0.000363186,0.00117061 0.000515942,0.00186893l0.00113476 0.00558652c2.18223e-005,0.000152756 4.36447e-005,0.000303954 6.39082e-005,0.000442682 2.18223e-005,0.000146521 4.52034e-005,0.000277455 6.70257e-005,0.000385008 2.18223e-005,0.000130934 3.5851e-005,0.000247839 3.5851e-005,0.000356951 7.79369e-006,0.000109112 7.79369e-006,0.000211988 7.79369e-006,0.000297719 0,6.70257e-005 -7.79369e-006,0.000130934 -2.9616e-005,0.000190166 -2.18223e-005,6.5467e-005 -5.9232e-005,0.000115347 -0.000101318,0.000158991 -4.36447e-005,4.36447e-005 -0.000109112,8.88481e-005 -0.000190166,0.000130934 -8.72893e-005,4.36447e-005 -0.000180814,8.72893e-005 -0.000291484,0.000132493 -0.000129375,2.02636e-005 -0.000282132,4.20859e-005 -0.000450475,6.39082e-005 -0.000174579,2.18223e-005 -0.000355392,4.36447e-005 -0.000551793,6.70257e-005 -0.000218223,2.18223e-005 -0.000458269,3.5851e-005 -0.000727931,3.5851e-005 -0.000261868,7.79369e-006 -0.000559587,7.79369e-006 -0.000886922,7.79369e-006 -0.00028369,0 -0.000545558,0 -0.00077781,-7.79369e-006 -0.000240046,0 -0.00044424,-1.40286e-005 -0.000618819,-3.5851e-005 -0.000196401,-2.33811e-005 -0.000363186,-4.52034e-005 -0.000501914,-7.32607e-005 -0.000138728,-2.18223e-005 -0.000261868,-5.76733e-005 -0.00037098,-0.000102877 -8.72893e-005,-4.36447e-005 -0.00016055,-8.72893e-005 -0.000224458,-0.000137169 -6.70257e-005,-4.36447e-005 -0.000124699,-0.000102877 -0.000168344,-0.000166785 -2.18223e-005,-6.70257e-005 -4.36447e-005,-0.000138728 -6.5467e-005,-0.000226017 -2.18223e-005,-8.10544e-005 -4.36447e-005,-0.000168344 -6.5467e-005,-0.000254074l-0.00104747 -0.00611025c-6.5467e-005,-0.000349157 -0.000129375,-0.000676492 -0.000202636,-0.00098824 -8.10544e-005,-0.000307071 -0.000168344,-0.00060479 -0.000275897,-0.000888481 -8.88481e-005,-0.000261868 -0.00019796,-0.000501914 -0.0003211,-0.000726372 -0.000130934,-0.000218223 -0.000269662,-0.000430212 -0.000422418,-0.000626613 -0.000152756,-0.000174579 -0.000319541,-0.000327335 -0.00049412,-0.00045671 -0.000182372,-0.000132493 -0.000378773,-0.000241604 -0.000595438,-0.000327335 -0.000218223,-8.88481e-005 -0.000459828,-0.000154315 -0.000713902,-0.000196401 -0.000261868,-4.52034e-005 -0.000529971,-6.70257e-005 -0.000813661,-6.70257e-005l-0.00174579 0 -0.00213859 0.0105184c0,6.39082e-005 -2.18223e-005,0.000129375 -5.76733e-005,0.000196401 -4.36447e-005,6.39082e-005 -9.5083e-005,0.000130934 -0.00016055,0.000194842 -4.36447e-005,4.36447e-005 -0.000109112,8.72893e-005 -0.000188607,0.000132493 -8.72893e-005,4.20859e-005 -0.000182372,8.57306e-005 -0.000291484,0.000129375 -0.000130934,4.52034e-005 -0.000269662,8.10544e-005 -0.000422418,0.000102877 -0.000152756,2.80573e-005 -0.000319541,4.98796e-005 -0.00049412,7.32607e-005 -0.000196401,2.18223e-005 -0.000406831,3.5851e-005 -0.000625054,3.5851e-005 -0.000226017,7.79369e-006 -0.000466063,7.79369e-006 -0.000727931,7.79369e-006 -0.00028369,0 -0.000537765,0 -0.000755988,-7.79369e-006 -0.000226017,0 -0.000422418,-1.40286e-005 -0.000596997,-3.5851e-005 -0.000174579,-2.33811e-005 -0.000327335,-4.52034e-005 -0.000464504,-7.32607e-005 -0.000130934,-2.18223e-005 -0.000254074,-5.76733e-005 -0.000364745,-0.000102877 -0.000174579,-8.72893e-005 -0.000303954,-0.000174579 -0.000391243,-0.000261868 -4.36447e-005,-6.39082e-005 -6.5467e-005,-0.000130934 -7.32607e-005,-0.000194842 0,-6.70257e-005 7.79369e-006,-0.000132493 2.9616e-005,-0.000196401l0.00501758 -0.0250489c6.5467e-005,-0.000327335 0.000166785,-0.000603232 0.000297719,-0.000823014 0.000130934,-0.000224458 0.000291484,-0.000399037 0.000487885,-0.000529971 0.000174579,-0.000152756 0.000378773,-0.000261868 0.000611025,-0.000335129 0.000232252,-6.5467e-005 0.000480091,-0.000101318 0.000741959,-0.000101318l0.00737439 0c0.00065467,0 0.0012657,2.9616e-005 0.00184866,9.35243e-005 0.000573615,5.9232e-005 0.00111917,0.000146521 0.00164291,0.000255633 0.000523736,0.000130934 0.00101162,0.00028369 0.00146833,0.000464504 0.000450475,0.000190166 0.000866658,0.000408389 0.00123764,0.000670257 0.000349157,0.000240046 0.000668698,0.000515942 0.000952389,0.000821455 0.00028369,0.000311748 0.00053153,0.000660905 0.000749753,0.00105527 0.000194842,0.00037098 0.000341364,0.00077781 0.000428653,0.00121426 9.5083e-005,0.000442682 0.000137169,0.000922773 0.000137169,0.00144651zm-0.00597776 0.00104747c0,-0.000196401 -2.18223e-005,-0.000392802 -5.76733e-005,-0.000581409 -4.52034e-005,-0.000196401 -9.5083e-005,-0.000377215 -0.00016055,-0.000551793 -6.5467e-005,-0.000176137 -0.000152756,-0.000327335 -0.000261868,-0.000473856 -0.000109112,-0.000138728 -0.000240046,-0.000269662 -0.000392802,-0.000400596 -0.000152756,-0.000129375 -0.000327335,-0.000240046 -0.000523736,-0.00033357 -0.000196401,-8.72893e-005 -0.000414624,-0.000166785 -0.00065467,-0.000233811 -0.000218223,-6.39082e-005 -0.000480091,-0.000115347 -0.000770016,-0.000158991 -0.000291484,-3.74097e-005 -0.00060479,-5.76733e-005 -0.000932125,-5.76733e-005l-0.0031845 0 -0.00152756 0.00781083 0.00266077 0c0.000523736,0 0.00101162,-3.74097e-005 0.00146989,-0.000101318 0.000450475,-7.32607e-005 0.000865099,-0.000182372 0.00123608,-0.000335129 0.00037098,-0.000152756 0.000698315,-0.000327335 0.000996033,-0.000523736 0.000291484,-0.000196401 0.000553352,-0.000414624 0.000793398,-0.00065467 0.000218223,-0.000240046 0.000414624,-0.000501914 0.000581409,-0.000779369 0.000174579,-0.000268103 0.000313306,-0.000551793 0.000422418,-0.000835483 8.72893e-005,-0.000305513 0.00016055,-0.000603232 0.000218223,-0.000894715 5.76733e-005,-0.000291484 8.72893e-005,-0.000589203 8.72893e-005,-0.000894715zm0.030372 0.0184165c4.36447e-005,0.000260309 6.5467e-005,0.00049412 7.94956e-005,0.000690521 7.79369e-006,0.000202636 7.79369e-006,0.000377215 7.79369e-006,0.00053153 0,0.000152756 -2.18223e-005,0.00028369 -7.32607e-005,0.000391243 -4.20859e-005,0.00011067 -0.00012314,0.000196401 -0.000232252,0.000263427 -8.72893e-005,8.57306e-005 -0.000204195,0.000152756 -0.000356951,0.000202636 -0.000151198,4.36447e-005 -0.000341364,7.94956e-005 -0.000559587,0.000102877 -0.000240046,2.18223e-005 -0.000501914,3.5851e-005 -0.000799632,3.5851e-005 -0.000297719,7.79369e-006 -0.000640641,7.79369e-006 -0.00103344,7.79369e-006 -0.000261868,0 -0.000501914,0 -0.000720137,-7.79369e-006 -0.000216665,0 -0.000414624,-1.40286e-005 -0.000589203,-3.5851e-005 -0.000349157,0 -0.000611025,-4.52034e-005 -0.000784045,-0.000130934 -0.00011067,-2.18223e-005 -0.000190166,-5.14383e-005 -0.000247839,-9.5083e-005 -5.9232e-005,-3.74097e-005 -0.000101318,-7.94956e-005 -0.000144963,-0.000124699 -4.52034e-005,-6.5467e-005 -7.32607e-005,-0.000137169 -9.5083e-005,-0.000224458 -2.18223e-005,-7.94956e-005 -3.5851e-005,-0.000168344 -3.5851e-005,-0.000254074l-0.000741959 -0.00554287 -0.0103438 0 -0.00287899 0.00541194c-4.36447e-005,8.57306e-005 -9.5083e-005,0.00017302 -0.00016055,0.000254074 -5.76733e-005,8.72893e-005 -0.00012314,0.000158991 -0.000188607,0.000226017 -6.5467e-005,6.39082e-005 -0.000138728,0.000129375 -0.000226017,0.000180814 -8.72893e-005,5.76733e-005 -0.000188607,0.000101318 -0.000297719,0.00012314 -0.000130934,4.52034e-005 -0.000277455,8.10544e-005 -0.000436447,0.000102877 -0.00016055,2.80573e-005 -0.000349157,4.98796e-005 -0.000567381,7.32607e-005 -0.000196401,2.18223e-005 -0.000422418,3.5851e-005 -0.000682727,3.5851e-005 -0.000255633,7.79369e-006 -0.000539323,7.79369e-006 -0.000844836,7.79369e-006 -0.000305513,0 -0.000589203,0 -0.000843277,-7.79369e-006 -0.000261868,0 -0.000487885,-1.40286e-005 -0.000684286,-3.5851e-005 -0.000174579,-2.33811e-005 -0.000319541,-6.70257e-005 -0.000428653,-0.000124699 -0.000116905,-6.5467e-005 -0.000202636,-0.000138728 -0.000269662,-0.000226017 -6.5467e-005,-6.5467e-005 -0.000101318,-0.000158991 -0.000101318,-0.000282132 -6.23495e-006,-0.000124699 1.40286e-005,-0.000263427 5.76733e-005,-0.000416183 4.36447e-005,-0.000129375 0.00011067,-0.000303954 0.000196401,-0.000508149 8.88481e-005,-0.000204195 0.000196401,-0.000428653 0.000327335,-0.000668698l0.0133974 -0.0244379c6.5467e-005,-0.000130934 0.000138728,-0.000240046 0.000218223,-0.000341364 7.94956e-005,-9.5083e-005 0.000152756,-0.000182372 0.000218223,-0.000269662 6.5467e-005,-6.5467e-005 0.000152756,-0.000130934 0.000254074,-0.000188607 0.000109112,-6.70257e-005 0.000226017,-0.000116905 0.000356951,-0.00016055 0.000130934,-2.18223e-005 0.00028369,-5.14383e-005 0.000458269,-8.10544e-005 0.000174579,-2.80573e-005 0.00037098,-4.98796e-005 0.000589203,-4.98796e-005 0.000218223,-2.18223e-005 0.000480091,-3.5851e-005 0.00077781,-3.5851e-005 0.000291484,-7.79369e-006 0.000618819,-7.79369e-006 0.000967976,-7.79369e-006 0.000436447,0 0.000821455,0 0.00114879,7.79369e-006 0.000335129,0 0.00061726,1.40286e-005 0.000858865,3.5851e-005 0.000238487,0 0.00045671,2.18223e-005 0.000646876,4.98796e-005 0.000196401,2.9616e-005 0.000355392,5.9232e-005 0.000486326,8.10544e-005 0.000130934,4.36447e-005 0.000247839,9.35243e-005 0.000342922,0.00016055 9.5083e-005,5.76733e-005 0.000158991,0.00012314 0.000180814,0.000188607 4.36447e-005,8.72893e-005 8.72893e-005,0.000182372 0.000124699,0.000291484 2.80573e-005,0.000107553 4.98796e-005,0.000232252 4.98796e-005,0.000363186l0.00362251 0.0244379zm-0.00837822 -0.0202044l0 0 -0.00619754 0.0116937 0.00776875 0 -0.00157121 -0.0116937zm0.0539806 0.0215573c-2.18223e-005,6.39082e-005 -4.36447e-005,0.000129375 -7.32607e-005,0.000196401 -2.18223e-005,6.39082e-005 -5.76733e-005,0.000130934 -0.000101318,0.000194842 -4.36447e-005,4.36447e-005 -0.000102877,8.72893e-005 -0.000166785,0.000132493 -7.32607e-005,4.20859e-005 -0.00016055,8.57306e-005 -0.000269662,0.000129375 -0.000109112,4.52034e-005 -0.000232252,8.10544e-005 -0.000363186,0.000102877 -0.000138728,2.80573e-005 -0.000291484,4.98796e-005 -0.000466063,7.32607e-005 -0.000196401,2.18223e-005 -0.000406831,3.5851e-005 -0.000625054,3.5851e-005 -0.000226017,7.79369e-006 -0.000466063,7.79369e-006 -0.000727931,7.79369e-006 -0.000261868,0 -0.000509707,0 -0.000734165,-7.79369e-006 -0.000226017,0 -0.000422418,-1.40286e-005 -0.000575174,-3.5851e-005 -0.000174579,-2.33811e-005 -0.000327335,-4.52034e-005 -0.000464504,-7.32607e-005 -0.000130934,-2.18223e-005 -0.000255633,-5.76733e-005 -0.000364745,-0.000102877 -8.57306e-005,-4.36447e-005 -0.000152756,-8.72893e-005 -0.000202636,-0.000129375 -5.76733e-005,-4.52034e-005 -0.000102877,-8.88481e-005 -0.000146521,-0.000132493 -4.36447e-005,-0.000130934 -4.36447e-005,-0.000261868 0,-0.000391243l0.00445176 -0.0224302 -4.36447e-005 0 -0.0124808 0.022385c-8.72893e-005,0.000174579 -0.000218223,0.000327335 -0.000385008,0.000452034 -0.000174579,0.000130934 -0.000378773,0.000224458 -0.000618819,0.000291484 -0.000240046,6.39082e-005 -0.000529971,0.000107553 -0.000879128,0.000137169 -0.000349157,2.18223e-005 -0.000755988,3.74097e-005 -0.00121582,3.74097e-005 -0.000914979,0 -0.00156965,-8.88481e-005 -0.00196245,-0.000263427 -0.000219782,-8.57306e-005 -0.000372538,-0.000174579 -0.000473856,-0.000275897 -0.000101318,-9.5083e-005 -0.000158991,-0.000204195 -0.000180814,-0.00033357l-0.0032297 -0.0224754 -4.36447e-005 0 -0.0044954 0.0224754c-2.18223e-005,6.39082e-005 -4.36447e-005,0.000129375 -7.17019e-005,0.000196401 -2.18223e-005,6.39082e-005 -5.9232e-005,0.000130934 -0.000102877,0.000194842 -4.36447e-005,4.36447e-005 -0.000107553,8.72893e-005 -0.000180814,0.000132493 -7.94956e-005,4.20859e-005 -0.000168344,8.57306e-005 -0.000254074,0.000129375 -0.00011067,4.52034e-005 -0.000233811,8.10544e-005 -0.000364745,0.000102877 -0.000137169,2.80573e-005 -0.000289925,4.98796e-005 -0.000464504,7.32607e-005 -0.000174579,2.18223e-005 -0.000378773,3.5851e-005 -0.000612584,3.5851e-005 -0.000232252,7.79369e-006 -0.000478532,7.79369e-006 -0.0007404,7.79369e-006 -0.000261868,0 -0.000501914,0 -0.000720137,-7.79369e-006 -0.000218223,0 -0.000414624,-1.40286e-005 -0.000589203,-3.5851e-005 -0.000174579,-2.33811e-005 -0.000327335,-4.52034e-005 -0.000458269,-7.32607e-005 -0.000130934,-2.18223e-005 -0.000240046,-5.76733e-005 -0.000327335,-0.000102877 -0.000109112,-4.36447e-005 -0.000190166,-8.72893e-005 -0.000247839,-0.000129375 -5.76733e-005,-4.52034e-005 -0.000101318,-8.88481e-005 -0.000144963,-0.000132493 -4.36447e-005,-0.000130934 -4.36447e-005,-0.000261868 0,-0.000391243l0.00488664 -0.0245688c4.36447e-005,-0.000174579 8.72893e-005,-0.000349157 0.000146521,-0.000515942 4.98796e-005,-0.00016055 0.000115347,-0.000313306 0.000202636,-0.00044424 6.5467e-005,-0.000152756 0.000144963,-0.00028369 0.000233811,-0.000400596 9.35243e-005,-0.000109112 0.000202636,-0.00021043 0.00033357,-0.000297719 0.000109112,-0.000109112 0.000218223,-0.000196401 0.000342922,-0.000275897 0.000115347,-7.32607e-005 0.000246281,-0.000138728 0.000399037,-0.000204195 0.000261868,-8.72893e-005 0.000567381,-0.000130934 0.000916538,-0.000130934l0.00349157 0c0.000305513,0 0.000589203,1.40286e-005 0.000857306,3.5851e-005 0.000263427,2.9616e-005 0.000517501,7.32607e-005 0.000757547,0.000138728 0.000436447,8.72893e-005 0.000785604,0.000261868 0.00104747,0.000523736 0.000152756,0.000130934 0.00028369,0.00028369 0.000391243,0.000450475 0.00011067,0.000174579 0.000196401,0.000356951 0.000263427,0.000553352 8.57306e-005,0.000218223 0.000152756,0.000450475 0.000202636,0.000690521 4.36447e-005,0.000247839 7.94956e-005,0.000509707 0.000102877,0.000793398l0.00266077 0.0164073 0.000130934 0 0.00946933 -0.0164073c0.000130934,-0.000261868 0.000269662,-0.000517501 0.000416183,-0.000755988 0.000144963,-0.000241604 0.000282132,-0.000466063 0.000413066,-0.000684286 0.000152756,-0.000196401 0.000305513,-0.000378773 0.000466063,-0.000553352 0.000152756,-0.000166785 0.000319541,-0.000319541 0.00049412,-0.000450475 0.000174579,-0.000130934 0.000363186,-0.000240046 0.000559587,-0.000335129 0.000196401,-8.72893e-005 0.000400596,-0.000166785 0.000618819,-0.000232252 0.000196401,-6.5467e-005 0.000422418,-0.000109112 0.000676492,-0.000138728 0.000254074,-2.18223e-005 0.000523736,-3.5851e-005 0.000807426,-3.5851e-005l0.00397166 0c0.000349157,0 0.000653111,4.36447e-005 0.000916538,0.000130934 0.000130934,6.5467e-005 0.000246281,0.000130934 0.000355392,0.000204195 0.000101318,7.94956e-005 0.000188607,0.000166785 0.000254074,0.000275897 6.70257e-005,8.72893e-005 0.000124699,0.000188607 0.000168344,0.000297719 4.36447e-005,0.000116905 7.32607e-005,0.000247839 9.35243e-005,0.000400596 4.36447e-005,0.000261868 4.36447e-005,0.000567381 0,0.000916538l-0.00493029 0.0246125zm0.0273605 -0.0260091c0,4.36447e-005 -7.79369e-006,0.000101318 -2.18223e-005,0.000166785 -1.40286e-005,7.32607e-005 -2.18223e-005,0.00016055 -2.18223e-005,0.000269662 -2.18223e-005,0.000109112 -3.5851e-005,0.000218223 -4.36447e-005,0.00033357 -6.23495e-006,0.00011067 -2.18223e-005,0.000233811 -4.36447e-005,0.000364745 -2.18223e-005,0.000130934 -4.36447e-005,0.000269662 -7.17019e-005,0.000414624 -2.18223e-005,0.000144963 -5.9232e-005,0.00028369 -0.000102877,0.000413066 -4.36447e-005,0.000152756 -8.72893e-005,0.000285249 -0.000130934,0.000408389 -4.36447e-005,0.00012314 -8.72893e-005,0.000247839 -0.000130934,0.000378773 -6.5467e-005,0.000109112 -0.000130934,0.000216665 -0.000196401,0.000311748 -6.5467e-005,0.000101318 -0.000130934,0.000190166 -0.000196401,0.000254074 -6.5467e-005,8.88481e-005 -0.000137169,0.000152756 -0.000226017,0.000196401 -7.94956e-005,4.52034e-005 -0.000166785,6.70257e-005 -0.000254074,6.70257e-005l-0.00986213 0 -0.00135298 0.00671972 0.00837977 0c8.57306e-005,0 0.000166785,2.18223e-005 0.000232252,5.76733e-005 6.5467e-005,4.36447e-005 0.000116905,9.5083e-005 0.000158991,0.00016055 4.36447e-005,6.5467e-005 8.10544e-005,0.000152756 0.000102877,0.000254074 2.18223e-005,0.000109112 2.9616e-005,0.000226017 2.9616e-005,0.000356951 0,4.36447e-005 0,0.000101318 0,0.000166785 0,7.32607e-005 0,0.00016055 0,0.000269662 -2.18223e-005,0.000109112 -4.36447e-005,0.000218223 -6.5467e-005,0.00033357 -2.33811e-005,0.00011067 -4.52034e-005,0.000233811 -6.70257e-005,0.000364745 -2.02636e-005,0.000130934 -4.20859e-005,0.000261868 -7.17019e-005,0.000392802 -2.18223e-005,0.000130934 -5.9232e-005,0.000260309 -0.000102877,0.000392802 -2.02636e-005,0.000152756 -4.98796e-005,0.00028369 -9.35243e-005,0.000406831 -4.36447e-005,0.00012314 -0.000101318,0.000247839 -0.000166785,0.000378773 -4.52034e-005,0.000107553 -9.5083e-005,0.000202636 -0.00016055,0.000289925 -5.9232e-005,8.72893e-005 -0.00012314,0.000166785 -0.000188607,0.000233811 -6.70257e-005,6.39082e-005 -0.000138728,0.000115347 -0.000226017,0.000158991 -7.94956e-005,3.74097e-005 -0.000168344,5.9232e-005 -0.000254074,5.9232e-005l-0.00833613 0 -0.00156965 0.00776719 0.00994942 0c8.72893e-005,0 0.000166785,2.18223e-005 0.000232252,5.76733e-005 6.5467e-005,4.36447e-005 0.000116905,9.5083e-005 0.000158991,0.00016055 8.88481e-005,0.000174579 0.000132493,0.000392802 0.000132493,0.00065467 0,6.5467e-005 0,0.000130934 0,0.000202636 0,8.10544e-005 0,0.000168344 0,0.000275897 -2.18223e-005,0.00011067 -3.74097e-005,0.000219782 -4.36447e-005,0.000335129 -7.79369e-006,0.000109112 -2.18223e-005,0.000233811 -4.36447e-005,0.000363186 -4.52034e-005,0.000132493 -7.94956e-005,0.000269662 -0.000109112,0.000416183 -2.9616e-005,0.000144963 -6.5467e-005,0.000282132 -0.00011067,0.000413066 -2.18223e-005,0.000132493 -4.98796e-005,0.000263427 -9.35243e-005,0.000386567 -4.36447e-005,0.000130934 -0.000101318,0.000247839 -0.000166785,0.000355392 -4.36447e-005,0.000109112 -9.5083e-005,0.000219782 -0.00016055,0.000313306 -5.76733e-005,0.000102877 -0.00012314,0.000188607 -0.000188607,0.000255633 -8.88481e-005,6.39082e-005 -0.000168344,0.000115347 -0.000240046,0.000158991 -7.32607e-005,3.5851e-005 -0.000152756,5.76733e-005 -0.000240046,5.76733e-005l-0.0138774 0c-0.000109112,0 -0.000218223,-6.23495e-006 -0.000319541,-2.80573e-005 -0.000109112,-1.40286e-005 -0.000204195,-3.5851e-005 -0.000291484,-5.9232e-005 -8.72893e-005,-4.36447e-005 -0.000174579,-8.72893e-005 -0.000254074,-0.000144963 -8.72893e-005,-5.14383e-005 -0.00016055,-0.000116905 -0.000226017,-0.000204195 -4.36447e-005,-6.5467e-005 -8.72893e-005,-0.000144963 -0.00012314,-0.000232252 -4.36447e-005,-8.72893e-005 -7.32607e-005,-0.000182372 -9.5083e-005,-0.000291484 -2.18223e-005,-0.000107553 -2.9616e-005,-0.000232252 -2.9616e-005,-0.000363186 0,-0.000137169 7.79369e-006,-0.000289925 2.9616e-005,-0.000464504l0.00484456 -0.0240014c6.5467e-005,-0.000327335 0.000152756,-0.000603232 0.000275897,-0.000823014 0.000116905,-0.000224458 0.000269662,-0.000399037 0.000466063,-0.000529971 0.000196401,-0.000152756 0.000406831,-0.000261868 0.000625054,-0.000335129 0.000218223,-6.5467e-005 0.000442682,-0.000101318 0.000682727,-0.000101318l0.0137029 0c0.000174579,0 0.000313306,6.5467e-005 0.000414624,0.000204195 0.000102877,0.000130934 0.000152756,0.000341364 0.000152756,0.000625054zm0.0258345 0.00916382c0,0.000414624 -7.79369e-006,0.000851071 -2.9616e-005,0.00130155 -2.18223e-005,0.000458269 -5.9232e-005,0.000924331 -0.000101318,0.00140442 -6.70257e-005,0.000458269 -0.000146521,0.00093836 -0.000233811,0.00142469 -9.35243e-005,0.000487885 -0.000204195,0.000974211 -0.00033357,0.00145586 -0.000109112,0.000501914 -0.000247839,0.000996033 -0.000422418,0.00148392 -0.000166785,0.000486326 -0.000363186,0.000980446 -0.000581409,0.00148236 -0.000196401,0.000480091 -0.000422418,0.000952389 -0.000684286,0.00141222 -0.000261868,0.000464504 -0.000559587,0.000922773 -0.000886922,0.00138104 -0.000305513,0.000436447 -0.000640641,0.000857306 -0.00101162,0.00127349 -0.000369421,0.000406831 -0.00077781,0.000799632 -0.00121426,0.00117061 -0.000414624,0.000392802 -0.000872893,0.000755988 -0.00136701,0.00108332 -0.000501914,0.00033357 -0.00103344,0.000640641 -0.00160082,0.000924331 -0.00108956,0.000567381 -0.00235681,0.00100227 -0.00379553,0.00130778 -0.000698315,0.000152756 -0.0014621,0.000269662 -0.00229914,0.000356951 -0.000829248,8.10544e-005 -0.00173799,0.00012314 -0.00272,0.00012314l-0.00698159 0c-0.000130934,0 -0.000247839,-6.23495e-006 -0.000356951,-2.80573e-005 -0.000109112,-1.40286e-005 -0.00021043,-3.5851e-005 -0.000297719,-5.9232e-005 -0.000109112,-2.18223e-005 -0.000204195,-6.5467e-005 -0.000291484,-0.00012314 -8.72893e-005,-5.14383e-005 -0.000166785,-0.000116905 -0.000232252,-0.000180814 -0.000130934,-0.000132493 -0.000218223,-0.000307071 -0.000261868,-0.000523736 -4.36447e-005,-0.00011067 -5.76733e-005,-0.000241604 -5.14383e-005,-0.000386567 7.79369e-006,-0.000152756 2.9616e-005,-0.000311748 5.14383e-005,-0.000486326l0.00484456 -0.0240014c4.36447e-005,-0.000327335 0.000129375,-0.000603232 0.000254074,-0.000823014 0.000130934,-0.000224458 0.000291484,-0.000399037 0.000486326,-0.000529971 0.000196401,-0.000152756 0.000408389,-0.000261868 0.000626613,-0.000335129 0.000224458,-6.5467e-005 0.000464504,-0.000101318 0.000726372,-0.000101318l0.00663399 0c0.00111138,0 0.00211521,5.14383e-005 0.00302551,0.00016055 0.000908744,0.000107553 0.0017302,0.000275897 0.00247216,0.00049412 0.000741959,0.000196401 0.00141845,0.000458269 0.00203727,0.000771575 0.000611025,0.000319541 0.00117061,0.000690521 0.00167253,0.00110515 0.000480091,0.000413066 0.00090095,0.000879128 0.00127193,0.00140286 0.000364745,0.000523736 0.000670257,0.00110515 0.000908744,0.00173799 0.000263427,0.000612584 0.000452034,0.00127349 0.000568939,0.00199363 0.000115347,0.000720137 0.000174579,0.00149795 0.000174579,0.0023272zm-0.00589203 0.00065467c0,-0.000458269 -2.18223e-005,-0.000894715 -7.32607e-005,-0.00130934 -5.76733e-005,-0.000414624 -0.000144963,-0.000807426 -0.000275897,-0.00117841 -0.000109112,-0.000392802 -0.000261868,-0.000755988 -0.000458269,-0.00108332 -0.000196401,-0.000335129 -0.000436447,-0.000640641 -0.000720137,-0.000924331 -0.000261868,-0.00028369 -0.000567381,-0.000522177 -0.000908744,-0.000734165 -0.000349157,-0.00021043 -0.000726372,-0.000400596 -0.00114255,-0.000575174 -0.000434888,-0.000152756 -0.000936801,-0.000260309 -0.00150574,-0.00033357 -0.000567381,-6.5467e-005 -0.00119867,-0.000101318 -0.00189698,-0.000101318l-0.00292419 0 -0.00379709 0.0187204 0.00296784 0c0.000741959,0 0.00142625,-4.36447e-005 0.00205753,-0.000130934 0.000626613,-8.72893e-005 0.00119399,-0.000218223 0.00169591,-0.000392802 0.000500355,-0.000174579 0.000982005,-0.000392802 0.00143248,-0.000646876 0.000458269,-0.000247839 0.000880687,-0.00053153 0.00127193,-0.000837042 0.000741959,-0.00065467 0.00139663,-0.00139663 0.00196401,-0.00222588 0.00028369,-0.000414624 0.000537765,-0.000843277 0.000755988,-0.00127972 0.000226017,-0.000436447 0.000422418,-0.000879128 0.000596997,-0.00133896 0.000174579,-0.000458269 0.0003211,-0.000922773 0.000436447,-0.00140286 0.000116905,-0.000472298 0.000218223,-0.000953948 0.000305513,-0.00143248 8.72893e-005,-0.000480091 0.000144963,-0.000952389 0.000174579,-0.00141066 2.9616e-005,-0.000466063 4.36447e-005,-0.000924331 4.36447e-005,-0.0013826zm0.0131355 0.0161906c-2.18223e-005,6.39082e-005 -4.36447e-005,0.000129375 -7.32607e-005,0.000196401 -3.5851e-005,6.39082e-005 -7.94956e-005,0.000130934 -0.000144963,0.000194842 -0.000130934,8.72893e-005 -0.000305513,0.000174579 -0.000523736,0.000261868 -0.000109112,4.52034e-005 -0.000240046,8.10544e-005 -0.000392802,0.000102877 -0.000152756,2.80573e-005 -0.000327335,4.98796e-005 -0.000523736,7.32607e-005 -0.000174579,2.18223e-005 -0.000378773,3.5851e-005 -0.000611025,3.5851e-005 -0.000232252,7.79369e-006 -0.000480091,7.79369e-006 -0.000741959,7.79369e-006 -0.00028369,0 -0.000537765,0 -0.000755988,-7.79369e-006 -0.000226017,0 -0.000422418,-1.40286e-005 -0.000596997,-3.5851e-005 -0.000174579,-2.33811e-005 -0.000327335,-4.52034e-005 -0.000464504,-7.32607e-005 -0.000132493,-2.18223e-005 -0.000255633,-5.76733e-005 -0.000364745,-0.000102877 -0.000174579,-8.72893e-005 -0.000303954,-0.000174579 -0.000392802,-0.000261868 -4.36447e-005,-6.39082e-005 -6.39082e-005,-0.000130934 -7.17019e-005,-0.000194842 0,-6.70257e-005 7.79369e-006,-0.000132493 2.80573e-005,-0.000196401l0.00523736 -0.0260964c0,-6.5467e-005 1.40286e-005,-0.000130934 3.5851e-005,-0.000196401 2.9616e-005,-6.5467e-005 7.32607e-005,-0.000130934 0.000138728,-0.000196401 0.000130934,-8.72893e-005 0.000305513,-0.000174579 0.000523736,-0.000261868 0.000130934,-4.36447e-005 0.000275897,-7.94956e-005 0.000428653,-0.000101318 0.000152756,-2.9616e-005 0.000313306,-5.14383e-005 0.000487885,-7.32607e-005 0.000174579,0 0.000377215,-7.79369e-006 0.000611025,-2.18223e-005 0.000232252,-1.40286e-005 0.000478532,-2.18223e-005 0.000741959,-2.18223e-005 0.000260309,0 0.000501914,7.79369e-006 0.000718578,2.18223e-005 0.000218223,1.40286e-005 0.000414624,2.18223e-005 0.000589203,2.18223e-005 0.000174579,2.18223e-005 0.000335129,4.36447e-005 0.000480091,7.32607e-005 0.000146521,2.18223e-005 0.000261868,5.76733e-005 0.000349157,0.000101318 0.000109112,4.36447e-005 0.000196401,8.72893e-005 0.000269662,0.000130934 6.5467e-005,4.36447e-005 0.000124699,8.72893e-005 0.000166785,0.000130934 2.18223e-005,6.5467e-005 4.36447e-005,0.000130934 5.9232e-005,0.000196401 6.23495e-006,6.5467e-005 6.23495e-006,0.000130934 -1.55874e-005,0.000196401l-0.00519216 0.0260964zm0.0308957 -0.0260527c0,0.000261868 -8.72893e-005,0.000523736 -0.000261868,0.000785604 -8.72893e-005,0.000152756 -0.000204195,0.000319541 -0.000356951,0.000501914 -0.000152756,0.000182372 -0.000341364,0.000392802 -0.000559587,0.000632848l-0.0097312 0.0102986 0.00580318 0.0123062c4.52034e-005,0.000152756 8.72893e-005,0.00028369 0.000124699,0.000399037 4.36447e-005,0.000124699 7.32607e-005,0.000233811 9.5083e-005,0.000341364 4.20859e-005,0.00011067 6.39082e-005,0.000211988 7.94956e-005,0.000299278 6.23495e-006,9.35243e-005 6.23495e-006,0.000182372 6.23495e-006,0.000268103 0,8.88481e-005 -6.23495e-006,0.000174579 -2.80573e-005,0.000255633 -2.18223e-005,8.72893e-005 -5.76733e-005,0.00016055 -0.000102877,0.000224458 -4.36447e-005,8.88481e-005 -0.000109112,0.000152756 -0.000188607,0.000204195 -8.72893e-005,5.9232e-005 -0.000182372,0.000101318 -0.000289925,0.000144963 -0.00011067,4.36447e-005 -0.000241604,8.88481e-005 -0.000394361,0.000124699 -0.000151198,4.36447e-005 -0.000325776,7.17019e-005 -0.000523736,9.5083e-005 -0.000196401,2.18223e-005 -0.000413066,3.5851e-005 -0.000660905,3.5851e-005 -0.000240046,7.79369e-006 -0.000515942,7.79369e-006 -0.000821455,7.79369e-006 -0.000305513,0 -0.000575174,0 -0.00081522,-7.79369e-006 -0.000240046,0 -0.000450475,-1.40286e-005 -0.000625054,-3.5851e-005 -0.000196401,-2.33811e-005 -0.000363186,-4.52034e-005 -0.000501914,-7.32607e-005 -0.000138728,-2.18223e-005 -0.000261868,-5.76733e-005 -0.00037098,-0.000102877 -0.000109112,-4.36447e-005 -0.000204195,-8.72893e-005 -0.000291484,-0.000137169 -7.94956e-005,-4.36447e-005 -0.000144963,-0.000102877 -0.000188607,-0.000166785 -4.36447e-005,-6.70257e-005 -8.72893e-005,-0.000132493 -0.000124699,-0.000204195 -4.36447e-005,-6.5467e-005 -7.17019e-005,-0.000144963 -9.35243e-005,-0.000233811l-0.00584683 -0.0130466 -0.00257503 0.0130903c-2.18223e-005,8.72893e-005 -4.36447e-005,0.00016055 -7.32607e-005,0.000226017 -3.5851e-005,6.5467e-005 -7.94956e-005,0.00012314 -0.000144963,0.000168344 -6.5467e-005,6.39082e-005 -0.000138728,0.00012314 -0.000226017,0.000166785 -8.72893e-005,4.98796e-005 -0.000188607,9.35243e-005 -0.000297719,0.000137169 -0.000109112,4.52034e-005 -0.000240046,8.10544e-005 -0.000392802,0.000102877 -0.000152756,2.80573e-005 -0.000327335,4.98796e-005 -0.000523736,7.32607e-005 -0.000174579,2.18223e-005 -0.00037098,3.5851e-005 -0.000596997,3.5851e-005 -0.000218223,7.79369e-006 -0.000472298,7.79369e-006 -0.000755988,7.79369e-006 -0.000261868,0 -0.000508149,0 -0.000741959,-7.79369e-006 -0.000232252,0 -0.000436447,-1.40286e-005 -0.000611025,-3.5851e-005 -0.000152756,-2.33811e-005 -0.000305513,-4.52034e-005 -0.00044424,-7.32607e-005 -0.000137169,-2.18223e-005 -0.000254074,-5.76733e-005 -0.000341364,-0.000102877 -0.000109112,-4.36447e-005 -0.000196401,-8.72893e-005 -0.000268103,-0.000137169 -6.70257e-005,-4.36447e-005 -0.000124699,-0.000102877 -0.000168344,-0.000166785 -2.18223e-005,-4.52034e-005 -4.36447e-005,-0.000102877 -5.14383e-005,-0.000168344 -1.40286e-005,-6.5467e-005 -1.40286e-005,-0.000138728 7.79369e-006,-0.000226017l0.00523736 -0.0260512c0,-6.5467e-005 1.40286e-005,-0.000130934 3.5851e-005,-0.000196401 2.9616e-005,-6.5467e-005 7.32607e-005,-0.000130934 0.000138728,-0.000196401 0.000130934,-8.72893e-005 0.000305513,-0.000174579 0.000523736,-0.000261868 0.000109112,-4.36447e-005 0.000240046,-7.94956e-005 0.000385008,-0.000101318 0.000152756,-2.9616e-005 0.000313306,-5.14383e-005 0.000487885,-7.32607e-005 0.000196401,0 0.000406831,-7.79369e-006 0.000632848,-2.18223e-005 0.000224458,-1.40286e-005 0.000478532,-2.18223e-005 0.000763782,-2.18223e-005 0.000260309,0 0.000501914,7.79369e-006 0.000718578,2.18223e-005 0.000218223,1.40286e-005 0.000414624,2.18223e-005 0.000589203,2.18223e-005 0.000174579,2.18223e-005 0.000335129,4.36447e-005 0.000480091,7.32607e-005 0.000146521,2.18223e-005 0.000261868,5.76733e-005 0.000349157,0.000101318 0.000109112,4.36447e-005 0.000196401,8.72893e-005 0.000269662,0.000130934 6.5467e-005,4.36447e-005 0.00012314,8.72893e-005 0.000166785,0.000130934 2.18223e-005,6.5467e-005 4.36447e-005,0.000130934 5.9232e-005,0.000196401 6.23495e-006,6.5467e-005 6.23495e-006,0.000130934 -1.55874e-005,0.000196401l-0.00235681 0.0117825 0.0102549 -0.0116952c6.70257e-005,-8.72893e-005 0.000130934,-0.000166785 0.000204195,-0.000233811 6.5467e-005,-7.17019e-005 0.000144963,-0.000137169 0.000232252,-0.000202636 8.72893e-005,-6.5467e-005 0.000190166,-0.000124699 0.000299278,-0.000166785 0.000109112,-5.14383e-005 0.000224458,-9.5083e-005 0.000356951,-0.000138728 0.000107553,-4.36447e-005 0.000246281,-7.94956e-005 0.000406831,-0.000101318 0.000158991,-2.9616e-005 0.00033357,-5.14383e-005 0.000508149,-7.32607e-005 0.000196401,0 0.000408389,-7.79369e-006 0.000632848,-2.18223e-005 0.000226017,-1.40286e-005 0.000480091,-2.18223e-005 0.000763782,-2.18223e-005 0.00028369,0 0.000539323,7.79369e-006 0.000763782,2.18223e-005 0.000226017,1.40286e-005 0.000436447,2.18223e-005 0.000632848,2.18223e-005 0.000174579,2.18223e-005 0.000327335,4.36447e-005 0.000466063,7.32607e-005 0.000130934,2.18223e-005 0.000254074,5.76733e-005 0.000363186,0.000101318 0.000109112,4.36447e-005 0.000196401,8.72893e-005 0.000269662,0.000138728 6.5467e-005,4.20859e-005 0.00012314,0.000101318 0.000166785,0.000166785 2.18223e-005,4.36447e-005 4.36447e-005,9.5083e-005 5.76733e-005,0.00016055 2.18223e-005,6.39082e-005 2.9616e-005,0.000144963 2.9616e-005,0.000232252zm0.0218192 0.0246998c4.36447e-005,0.000260309 6.5467e-005,0.00049412 7.94956e-005,0.000690521 7.79369e-006,0.000202636 7.79369e-006,0.000377215 7.79369e-006,0.00053153 0,0.000152756 -2.18223e-005,0.00028369 -7.32607e-005,0.000391243 -4.36447e-005,0.00011067 -0.00012314,0.000196401 -0.000232252,0.000263427 -8.72893e-005,8.57306e-005 -0.000204195,0.000152756 -0.000356951,0.000202636 -0.000152756,4.36447e-005 -0.000341364,7.94956e-005 -0.000559587,0.000102877 -0.000240046,2.18223e-005 -0.000501914,3.5851e-005 -0.000799632,3.5851e-005 -0.000299278,7.79369e-006 -0.000640641,7.79369e-006 -0.00103344,7.79369e-006 -0.000261868,0 -0.000501914,0 -0.000720137,-7.79369e-006 -0.000218223,0 -0.000414624,-1.40286e-005 -0.000589203,-3.5851e-005 -0.000349157,0 -0.000611025,-4.52034e-005 -0.000785604,-0.000130934 -0.000109112,-2.18223e-005 -0.000188607,-5.14383e-005 -0.000246281,-9.5083e-005 -5.9232e-005,-3.74097e-005 -0.000102877,-7.94956e-005 -0.000146521,-0.000124699 -4.36447e-005,-6.5467e-005 -7.17019e-005,-0.000137169 -9.35243e-005,-0.000224458 -2.18223e-005,-7.94956e-005 -3.74097e-005,-0.000168344 -3.74097e-005,-0.000254074l-0.0007404 -0.00554287 -0.0103438 0 -0.00287899 0.00541194c-4.52034e-005,8.57306e-005 -9.5083e-005,0.00017302 -0.00016055,0.000254074 -5.9232e-005,8.72893e-005 -0.00012314,0.000158991 -0.000188607,0.000226017 -6.5467e-005,6.39082e-005 -0.000138728,0.000129375 -0.000226017,0.000180814 -8.72893e-005,5.76733e-005 -0.000188607,0.000101318 -0.000297719,0.00012314 -0.000130934,4.52034e-005 -0.000277455,8.10544e-005 -0.000436447,0.000102877 -0.00016055,2.80573e-005 -0.000349157,4.98796e-005 -0.000567381,7.32607e-005 -0.000196401,2.18223e-005 -0.000422418,3.5851e-005 -0.000684286,3.5851e-005 -0.000254074,7.79369e-006 -0.000537765,7.79369e-006 -0.000843277,7.79369e-006 -0.000305513,0 -0.000589203,0 -0.000843277,-7.79369e-006 -0.000261868,0 -0.000487885,-1.40286e-005 -0.000684286,-3.5851e-005 -0.000174579,-2.33811e-005 -0.000319541,-6.70257e-005 -0.000428653,-0.000124699 -0.000116905,-6.5467e-005 -0.000204195,-0.000138728 -0.000269662,-0.000226017 -6.5467e-005,-6.5467e-005 -0.000101318,-0.000158991 -0.000101318,-0.000282132 -7.79369e-006,-0.000124699 1.40286e-005,-0.000263427 5.76733e-005,-0.000416183 4.36447e-005,-0.000129375 0.000109112,-0.000303954 0.000196401,-0.000508149 8.72893e-005,-0.000204195 0.000196401,-0.000428653 0.000327335,-0.000668698l0.0133974 -0.0244379c6.5467e-005,-0.000130934 0.000137169,-0.000240046 0.000218223,-0.000341364 7.94956e-005,-9.5083e-005 0.000152756,-0.000182372 0.000218223,-0.000269662 6.5467e-005,-6.5467e-005 0.000152756,-0.000130934 0.000254074,-0.000188607 0.000109112,-6.70257e-005 0.000226017,-0.000116905 0.000356951,-0.00016055 0.000130934,-2.18223e-005 0.00028369,-5.14383e-005 0.000458269,-8.10544e-005 0.000174579,-2.80573e-005 0.00037098,-4.98796e-005 0.000589203,-4.98796e-005 0.000216665,-2.18223e-005 0.000480091,-3.5851e-005 0.00077781,-3.5851e-005 0.000289925,-7.79369e-006 0.00061726,-7.79369e-006 0.000966417,-7.79369e-006 0.000438005,0 0.000823014,0 0.00115035,7.79369e-006 0.000335129,0 0.00061726,1.40286e-005 0.000857306,3.5851e-005 0.000240046,0 0.000458269,2.18223e-005 0.000648435,4.98796e-005 0.000194842,2.9616e-005 0.000355392,5.9232e-005 0.000486326,8.10544e-005 0.000130934,4.36447e-005 0.000247839,9.35243e-005 0.000342922,0.00016055 9.35243e-005,5.76733e-005 0.000158991,0.00012314 0.000180814,0.000188607 4.36447e-005,8.72893e-005 8.72893e-005,0.000182372 0.000124699,0.000291484 2.80573e-005,0.000107553 4.98796e-005,0.000232252 4.98796e-005,0.000363186l0.00362251 0.0244379zm-0.00837822 -0.0202044l0 0 -0.00619754 0.0116937 0.00776719 0 -0.00156965 -0.0116937z"/>
  </g>
 </g>
</svg>
